<?xml version="1.0" standalone="no"?>
<!DOCTYPE svg PUBLIC "-//W3C//DTD SVG 1.1//EN" "http://www.w3.org/Graphics/SVG/1.1/DTD/svg11.dtd" >
<svg xmlns="http://www.w3.org/2000/svg" xmlns:xlink="http://www.w3.org/1999/xlink" version="1.1">
<metadata>
Created by FontForge 20170731 at Sun Jan  5 20:06:49 2014
 By Aleksey,,,
Copyright (c) 2014 by Letterjuice Ltd. All rights reserved.
</metadata>
<defs>
<font id="BaldufaArabic-Regular" horiz-adv-x="0" >
  <font-face 
    font-family="Baldufa Arabic"
    font-weight="400"
    font-stretch="normal"
    units-per-em="1000"
    panose-1="2 10 5 3 6 6 2 3 10 3"
    ascent="800"
    descent="-200"
    bbox="-394 -907 1130 1315"
    underline-thickness="50"
    underline-position="-200"
    unicode-range="U+0008-FEFC"
  />
<missing-glyph horiz-adv-x="500" 
 />
    <glyph glyph-name="uniFEF5" unicode="&#xfedf;&#xfe82;" horiz-adv-x="583" arabic-form="isolated" 
d="M441 330q82 -103 82 -202q0 -67 -34 -95q-39 -33 -127 -33q-76 0 -113 32.5t-37 87.5q0 25 7 47q75 34 137 146q-71 73 -181 158q-19 -14 -39 -14q-4 0 -16 2q-8 6 -20 15.5t-32 37.5t-20 53q0 17 13 36q13 12 34 12q37 0 73 -30q164 -137 221 -196q41 107 41 207
q0 21 -2.5 42.5t-2.5 27.5q0 25 12.5 38t30.5 13q38 0 45 -44q2 -15 2 -32q0 -159 -74 -309zM281 138v-4q0 -18 22.5 -31.5t68.5 -13.5q91 0 91 56q0 43 -61 118q-54 -79 -121 -125zM16 651q-1 -1 -3 -1q-11 0 -11 36q0 29 17 44t44 17l61 5q44 4 71 14t47 38q11 0 11 -20
q0 -79 -118 -86l-65 -5q-43 -3 -54 -42z" />
    <glyph glyph-name="uniFEF6" unicode="&#xfee0;&#xfe82;" horiz-adv-x="671" arabic-form="final" 
d="M687 72v-56q0 -16 -16 -16q-155 0 -200 162q-49 -67 -125 -116t-147 -49q-40 0 -64 28.5t-24 56.5q0 17 11 20q22 -21 68 -21q51 0 144 50t122 94q-23 103 -45 239.5t-27 199.5q0 22 13 35t33 13q29 0 42 -31q39 -352 69 -480q15 -63 40 -88t90 -25q16 0 16 -16zM402 226
q-2 -14 -24 -14q-7 0 -10 3q-58 162 -149 239q-20 -10 -35 -10q-10 0 -21 4q-7 7 -17 19.5t-26.5 43t-16.5 53.5q0 21 11 33q10 8 31 8q64 0 150 -122.5t107 -256.5zM14 651q-1 -1 -3 -1q-11 0 -11 36q0 29 17 44t44 17l61 5q44 4 71 14t47 38q11 0 11 -20q0 -79 -118 -86
l-65 -5q-43 -3 -54 -42z" />
    <glyph glyph-name="uniFEF7" unicode="&#xfedf;&#xfe84;" horiz-adv-x="559" arabic-form="isolated" 
d="M417 330q82 -103 82 -202q0 -67 -34 -95q-39 -33 -127 -33q-76 0 -113 32.5t-37 87.5q0 25 7 47q75 34 137 146q-71 73 -181 158q-19 -14 -39 -14q-4 0 -16 2q-8 6 -20 15.5t-32 37.5t-20 53q0 17 13 36q13 12 34 12q37 0 73 -30q164 -137 221 -196q41 107 41 207
q0 21 -2.5 42.5t-2.5 27.5q0 25 12.5 38t30.5 13q38 0 45 -44q2 -15 2 -32q0 -159 -74 -309zM257 138v-4q0 -18 22.5 -31.5t68.5 -13.5q91 0 91 56q0 43 -61 118q-54 -79 -121 -125zM34 732q-27 24 -27 54q0 32 33.5 60t63.5 28q43 0 43 -34q0 -15 -7.5 -26.5t-16.5 -11.5
q-2 0 -8 2q-5 18 -31 18q-18 0 -30 -6t-12 -15q0 -14 16 -23t44 -9q20 0 58 10q9 0 15 -7.5t6 -17.5q0 -18 -15 -24q-33 -5 -53.5 -10.5t-49.5 -22t-48 -42.5q-14 10 -14 27q0 15 9.5 29t23.5 21z" />
    <glyph glyph-name="uniFEF8" unicode="&#xfee0;&#xfe84;" horiz-adv-x="625" arabic-form="final" 
d="M641 72v-56q0 -16 -16 -16q-155 0 -200 162q-49 -67 -125 -116t-147 -49q-40 0 -64 28.5t-24 56.5q0 17 11 20q22 -21 68 -21q51 0 144 50t122 94q-23 103 -45 239.5t-27 199.5q0 22 13 35t33 13q29 0 42 -31q39 -352 69 -480q15 -63 40 -88t90 -25q16 0 16 -16zM356 226
q-2 -14 -24 -14q-7 0 -10 3q-58 162 -149 239q-20 -10 -35 -10q-10 0 -21 4q-7 7 -17 19.5t-26.5 43t-16.5 53.5q0 21 11 33q10 8 31 8q64 0 150 -122.5t107 -256.5zM34 733q-27 24 -27 54q0 32 33.5 60t63.5 28q43 0 43 -34q0 -15 -7.5 -26.5t-16.5 -11.5q-2 0 -8 2
q-5 18 -31 18q-18 0 -30 -6t-12 -15q0 -14 16 -23t44 -9q20 0 58 10q9 0 15 -7.5t6 -17.5q0 -18 -15 -24q-33 -5 -53.5 -10.5t-49.5 -22t-48 -42.5q-14 10 -14 27q0 33 33 50z" />
    <glyph glyph-name="uniFEF9" unicode="&#xfedf;&#xfe88;" horiz-adv-x="545" arabic-form="isolated" 
d="M403 330q82 -103 82 -202q0 -67 -34 -95q-39 -33 -127 -33q-76 0 -113 32.5t-37 87.5q0 25 7 47q75 34 137 146q-71 73 -181 158q-19 -14 -39 -14q-4 0 -16 2q-8 6 -20 15.5t-32 37.5t-20 53q0 17 13 36q13 12 34 12q37 0 73 -30q164 -137 221 -196q41 107 41 207
q0 21 -2.5 42.5t-2.5 27.5q0 25 12.5 38t30.5 13q38 0 45 -44q2 -15 2 -32q0 -159 -74 -309zM243 138v-4q0 -18 22.5 -31.5t68.5 -13.5q91 0 91 56q0 43 -61 118q-54 -79 -121 -125zM83 -194q-27 24 -27 54q0 32 33.5 60t63.5 28q43 0 43 -34q0 -15 -7.5 -26.5t-16.5 -11.5
q-2 0 -8 2q-5 18 -31 18q-18 0 -30 -6t-12 -15q0 -14 16 -23t44 -9q20 0 58 10q9 0 15 -7.5t6 -17.5q0 -18 -15 -24q-33 -5 -53.5 -10.5t-49.5 -22t-48 -42.5q-14 10 -14 27q0 15 9.5 29t23.5 21z" />
    <glyph glyph-name="uniFEFA" unicode="&#xfee0;&#xfe88;" horiz-adv-x="598" arabic-form="final" 
d="M614 72v-56q0 -16 -16 -16q-155 0 -200 162q-49 -67 -125 -116t-147 -49q-40 0 -64 28.5t-24 56.5q0 17 11 20q22 -21 68 -21q51 0 144 50t122 94q-23 103 -45 239.5t-27 199.5q0 22 13 35t33 13q29 0 42 -31q39 -352 69 -480q15 -63 40 -88t90 -25q16 0 16 -16zM329 226
q-2 -14 -24 -14q-7 0 -10 3q-58 162 -149 239q-20 -10 -35 -10q-10 0 -21 4q-7 7 -17 19.5t-26.5 43t-16.5 53.5q0 21 11 33q10 8 31 8q64 0 150 -122.5t107 -256.5zM69 -194q-27 24 -27 54q0 32 33.5 60t63.5 28q43 0 43 -34q0 -15 -7.5 -26.5t-16.5 -11.5q-2 0 -8 2
q-5 18 -31 18q-18 0 -30 -6t-12 -15q0 -14 16 -23t44 -9q20 0 58 10q9 0 15 -7.5t6 -17.5q0 -18 -15 -24q-33 -5 -53.5 -10.5t-49.5 -22t-48 -42.5q-14 10 -14 27q0 15 9.5 29t23.5 21z" />
    <glyph glyph-name="uniFEFB" unicode="&#xfedf;&#xfe8e;" horiz-adv-x="535" arabic-form="isolated" 
d="M393 330q82 -103 82 -202q0 -67 -34 -95q-39 -33 -127 -33q-76 0 -113 32.5t-37 87.5q0 25 7 47q75 34 137 146q-71 73 -181 158q-19 -14 -39 -14q-4 0 -16 2q-8 6 -20 15.5t-32 37.5t-20 53q0 17 13 36q13 12 34 12q37 0 73 -30q164 -137 221 -196q41 107 41 207
q0 21 -2.5 42.5t-2.5 27.5q0 25 12.5 38t30.5 13q38 0 45 -44q2 -15 2 -32q0 -159 -74 -309zM233 138v-4q0 -18 22.5 -31.5t68.5 -13.5q91 0 91 56q0 43 -61 118q-54 -79 -121 -125z" />
    <glyph glyph-name="uniFEFC" unicode="&#xfee0;&#xfe8e;" horiz-adv-x="598" arabic-form="final" 
d="M614 72v-56q0 -16 -16 -16q-155 0 -200 162q-49 -67 -125 -116t-147 -49q-40 0 -64 28.5t-24 56.5q0 17 11 20q22 -21 68 -21q51 0 144 50t122 94q-23 103 -45 239.5t-27 199.5q0 22 13 35t33 13q29 0 42 -31q39 -352 69 -480q15 -63 40 -88t90 -25q16 0 16 -16zM329 226
q-2 -14 -24 -14q-7 0 -10 3q-58 162 -149 239q-20 -10 -35 -10q-10 0 -21 4q-7 7 -17 19.5t-26.5 43t-16.5 53.5q0 21 11 33q10 8 31 8q64 0 150 -122.5t107 -256.5z" />
    <glyph glyph-name="uni06440671" unicode="&#xfedf;&#xfb51;" horiz-adv-x="563" 
d="M421 330q82 -103 82 -202q0 -67 -34 -95q-39 -33 -127 -33q-76 0 -113 32.5t-37 87.5q0 25 7 47q75 34 137 146q-71 73 -181 158q-19 -14 -39 -14q-4 0 -16 2q-8 6 -20 15.5t-32 37.5t-20 53q0 17 13 36q13 12 34 12q37 0 73 -30q164 -137 221 -196q41 107 41 207
q0 21 -2.5 42.5t-2.5 27.5q0 25 12.5 38t30.5 13q38 0 45 -44q2 -15 2 -32q0 -159 -74 -309zM261 138v-4q0 -18 22.5 -31.5t68.5 -13.5q91 0 91 56q0 43 -61 118q-54 -79 -121 -125zM140 840q27 0 44 -22t17 -50q0 -30 -19 -46q-31 -28 -121 -42q-23 -3 -33 -9t-10 -21
q0 -1 -3 -1q-5 0 -10 8t-5 19q0 19 13 32t34 17q4 16 9.5 31.5t16 36.5t28 34t39.5 13zM166 772q0 17 -28 17q-36 0 -65 -61q31 4 54 13.5t31 17.5t8 13z" />
    <glyph glyph-name="uni06440671.fina" unicode="&#xfee0;&#xfb51;" horiz-adv-x="661" 
d="M677 72v-56q0 -16 -16 -16q-155 0 -200 162q-49 -67 -125 -116t-147 -49q-40 0 -64 28.5t-24 56.5q0 17 11 20q22 -21 68 -21q51 0 144 50t122 94q-23 103 -45 239.5t-27 199.5q0 22 13 35t33 13q29 0 42 -31q39 -352 69 -480q15 -63 40 -88t90 -25q16 0 16 -16zM392 226
q-2 -14 -24 -14q-7 0 -10 3q-58 162 -149 239q-20 -10 -35 -10q-10 0 -21 4q-7 7 -17 19.5t-26.5 43t-16.5 53.5q0 21 11 33q10 8 31 8q64 0 150 -122.5t107 -256.5zM141 840q27 0 44 -22t17 -50q0 -30 -19 -46q-31 -28 -121 -42q-23 -3 -33 -9t-10 -21q0 -1 -3 -1
q-5 0 -10 8t-5 19q0 19 13 32t34 17q4 16 9.5 31.5t16 36.5t28 34t39.5 13zM167 772q0 17 -28 17q-36 0 -65 -61q31 4 54 13.5t31 17.5t8 13z" />
    <glyph glyph-name="uniFEDBFE8E" unicode="&#xfedb;&#xfe8e;" horiz-adv-x="544" 
d="M10 664q0 22 13 35t33 13q29 0 42 -31q21 -205 26 -249q54 74 188 170t175 96q15 0 25.5 -12.5t10.5 -27.5q0 -21 -20 -34q-6 -3 -43.5 -24.5t-60 -35.5t-61 -40t-77.5 -57t-78 -68q20 -8 55 -21t54 -20t48 -20t44.5 -22.5t34.5 -25t28.5 -31t16.5 -36t7 -44.5
q0 -77 -59 -128t-131 -51q-146 0 -184 141q-17 61 -49.5 256.5t-37.5 266.5zM403 160q0 16 -5.5 29.5t-21 26.5t-29 22.5t-44.5 23.5t-51 22t-64 26q-11 4 -17 6.5t-15.5 6.5t-17.5 7q9 -64 23 -129q14 -68 39 -90.5t82 -22.5q40 0 73.5 18t47.5 54z" />
    <glyph glyph-name="uniFEDCFE8E" unicode="&#xfedc;&#xfe8e;" horiz-adv-x="681" 
d="M697 72v-56q0 -16 -16 -16t-32 3.5t-29 7.5t-30.5 14l-28 16t-31 22.5t-29 23.5t-33.5 28t-34 28q0 -71 -50.5 -107t-116.5 -36q-132 0 -170 141q-17 62 -49.5 257t-37.5 266q0 22 13 35t33 13q29 0 42 -31q2 -14 5.5 -54.5t8 -83.5t9.5 -82q49 68 179.5 153.5
t176.5 85.5q20 0 32 -13t12 -30q0 -24 -22 -34q-67 -30 -106.5 -50t-95 -57.5t-105.5 -84.5q126 -90 261 -197.5t149 -117.5q38 -27 79 -28q16 0 16 -16zM379 160q0 7 -3 15t-10.5 17t-15.5 17.5t-23 21t-27.5 22.5t-34.5 26t-39 28t-45.5 33t-49.5 36q16 -114 30 -175
q13 -59 35 -86t75 -27q45 0 73.5 19.5t34.5 52.5z" />
    <glyph glyph-name="uniFEDBFE82" unicode="&#xfedb;&#xfe82;" horiz-adv-x="593" 
d="M59 664q0 22 13 35t33 13q29 0 42 -31q21 -205 26 -249q54 74 188 170t175 96q15 0 25.5 -12.5t10.5 -27.5q0 -21 -20 -34q-6 -3 -43.5 -24.5t-60 -35.5t-61 -40t-77.5 -57t-78 -68q20 -8 55 -21t54 -20t48 -20t44.5 -22.5t34.5 -25t28.5 -31t16.5 -36t7 -44.5
q0 -77 -59 -128t-131 -51q-146 0 -184 141q-17 61 -49.5 256.5t-37.5 266.5zM452 160q0 16 -5.5 29.5t-21 26.5t-29 22.5t-44.5 23.5t-51 22t-64 26q-11 4 -17 6.5t-15.5 6.5t-17.5 7q9 -64 23 -129q14 -68 39 -90.5t82 -22.5q40 0 73.5 18t47.5 54zM14 779q-1 -1 -3 -1
q-11 0 -11 36q0 29 17 44t44 17l61 5q44 4 71 14t47 38q11 0 11 -20q0 -79 -118 -86l-65 -5q-43 -3 -54 -42z" />
    <glyph glyph-name="uniFEDCFE82" unicode="&#xfedc;&#xfe82;" horiz-adv-x="731" 
d="M747 72v-56q0 -16 -16 -16t-32 3.5t-29 7.5t-30.5 14l-28 16t-31 22.5t-29 23.5t-33.5 28t-34 28q0 -71 -50.5 -107t-116.5 -36q-132 0 -170 141q-17 62 -49.5 257t-37.5 266q0 22 13 35t33 13q29 0 42 -31q2 -14 5.5 -54.5t8 -83.5t9.5 -82q49 68 179.5 153.5
t176.5 85.5q20 0 32 -13t12 -30q0 -24 -22 -34q-67 -30 -106.5 -50t-95 -57.5t-105.5 -84.5q126 -90 261 -197.5t149 -117.5q38 -27 79 -28q16 0 16 -16zM429 160q0 7 -3 15t-10.5 17t-15.5 17.5t-23 21t-27.5 22.5t-34.5 26t-39 28t-45.5 33t-49.5 36q16 -114 30 -175
q13 -59 35 -86t75 -27q45 0 73.5 19.5t34.5 52.5zM14 779q-1 -1 -3 -1q-11 0 -11 36q0 29 17 44t44 17l61 5q44 4 71 14t47 38q11 0 11 -20q0 -79 -118 -86l-65 -5q-43 -3 -54 -42z" />
    <glyph glyph-name="uniFEDBFE84" unicode="&#xfedb;&#xfe84;" horiz-adv-x="582" 
d="M48 664q0 22 13 35t33 13q29 0 42 -31q21 -205 26 -249q54 74 188 170t175 96q15 0 25.5 -12.5t10.5 -27.5q0 -21 -20 -34q-6 -3 -43.5 -24.5t-60 -35.5t-61 -40t-77.5 -57t-78 -68q20 -8 55 -21t54 -20t48 -20t44.5 -22.5t34.5 -25t28.5 -31t16.5 -36t7 -44.5
q0 -77 -59 -128t-131 -51q-146 0 -184 141q-17 61 -49.5 256.5t-37.5 266.5zM441 160q0 16 -5.5 29.5t-21 26.5t-29 22.5t-44.5 23.5t-51 22t-64 26q-11 4 -17 6.5t-15.5 6.5t-17.5 7q9 -64 23 -129q14 -68 39 -90.5t82 -22.5q40 0 73.5 18t47.5 54zM34 784q-27 24 -27 54
q0 32 33.5 60t63.5 28q43 0 43 -34q0 -15 -7.5 -26.5t-16.5 -11.5q-2 0 -8 2q-5 18 -31 18q-18 0 -30 -6t-12 -15q0 -14 16 -23t44 -9q20 0 58 10q9 0 15 -7.5t6 -17.5q0 -18 -15 -24q-33 -5 -53.5 -10.5t-49.5 -22t-48 -42.5q-14 10 -14 27q0 15 9.5 29t23.5 21z" />
    <glyph glyph-name="uniFEDCFE84" unicode="&#xfedc;&#xfe84;" horiz-adv-x="719" 
d="M735 72v-56q0 -16 -16 -16t-32 3.5t-29 7.5t-30.5 14l-28 16t-31 22.5t-29 23.5t-33.5 28t-34 28q0 -71 -50.5 -107t-116.5 -36q-132 0 -170 141q-17 62 -49.5 257t-37.5 266q0 22 13 35t33 13q29 0 42 -31q2 -14 5.5 -54.5t8 -83.5t9.5 -82q49 68 179.5 153.5
t176.5 85.5q20 0 32 -13t12 -30q0 -24 -22 -34q-67 -30 -106.5 -50t-95 -57.5t-105.5 -84.5q126 -90 261 -197.5t149 -117.5q38 -27 79 -28q16 0 16 -16zM417 160q0 7 -3 15t-10.5 17t-15.5 17.5t-23 21t-27.5 22.5t-34.5 26t-39 28t-45.5 33t-49.5 36q16 -114 30 -175
q13 -59 35 -86t75 -27q45 0 73.5 19.5t34.5 52.5zM34 784q-27 24 -27 54q0 32 33.5 60t63.5 28q43 0 43 -34q0 -15 -7.5 -26.5t-16.5 -11.5q-2 0 -8 2q-5 18 -31 18q-18 0 -30 -6t-12 -15q0 -14 16 -23t44 -9q20 0 58 10q9 0 15 -7.5t6 -17.5q0 -18 -15 -24
q-33 -5 -53.5 -10.5t-49.5 -22t-48 -42.5q-14 10 -14 27q0 15 9.5 29t23.5 21z" />
    <glyph glyph-name="uniFEDBFE88" unicode="&#xfedb;&#xfe88;" horiz-adv-x="582" 
d="M48 664q0 22 13 35t33 13q29 0 42 -31q21 -205 26 -249q54 74 188 170t175 96q15 0 25.5 -12.5t10.5 -27.5q0 -21 -20 -34q-6 -3 -43.5 -24.5t-60 -35.5t-61 -40t-77.5 -57t-78 -68q20 -8 55 -21t54 -20t48 -20t44.5 -22.5t34.5 -25t28.5 -31t16.5 -36t7 -44.5
q0 -77 -59 -128t-131 -51q-146 0 -184 141q-17 61 -49.5 256.5t-37.5 266.5zM441 160q0 16 -5.5 29.5t-21 26.5t-29 22.5t-44.5 23.5t-51 22t-64 26q-11 4 -17 6.5t-15.5 6.5t-17.5 7q9 -64 23 -129q14 -68 39 -90.5t82 -22.5q40 0 73.5 18t47.5 54zM124 -195q-27 24 -27 54
q0 32 33.5 60t63.5 28q43 0 43 -34q0 -15 -7.5 -26.5t-16.5 -11.5q-2 0 -8 2q-5 18 -31 18q-18 0 -30 -6t-12 -15q0 -14 16 -23t44 -9q20 0 58 10q9 0 15 -7.5t6 -17.5q0 -18 -15 -24q-33 -5 -53.5 -10.5t-49.5 -22t-48 -42.5q-14 10 -14 27q0 33 33 50z" />
    <glyph glyph-name="uniFEDCFE88" unicode="&#xfedc;&#xfe88;" horiz-adv-x="681" 
d="M697 72v-56q0 -16 -16 -16t-32 3.5t-29 7.5t-30.5 14l-28 16t-31 22.5t-29 23.5t-33.5 28t-34 28q0 -71 -50.5 -107t-116.5 -36q-132 0 -170 141q-17 62 -49.5 257t-37.5 266q0 22 13 35t33 13q29 0 42 -31q2 -14 5.5 -54.5t8 -83.5t9.5 -82q49 68 179.5 153.5
t176.5 85.5q20 0 32 -13t12 -30q0 -24 -22 -34q-67 -30 -106.5 -50t-95 -57.5t-105.5 -84.5q126 -90 261 -197.5t149 -117.5q38 -27 79 -28q16 0 16 -16zM379 160q0 7 -3 15t-10.5 17t-15.5 17.5t-23 21t-27.5 22.5t-34.5 26t-39 28t-45.5 33t-49.5 36q16 -114 30 -175
q13 -59 35 -86t75 -27q45 0 73.5 19.5t34.5 52.5zM145 -219q-27 24 -27 54q0 32 33.5 60t63.5 28q43 0 43 -34q0 -15 -7.5 -26.5t-16.5 -11.5q-2 0 -8 2q-5 18 -31 18q-18 0 -30 -6t-12 -15q0 -14 16 -23t44 -9q20 0 58 10q9 0 15 -7.5t6 -17.5q0 -18 -15 -24
q-33 -5 -53.5 -10.5t-49.5 -22t-48 -42.5q-14 10 -14 27q0 33 33 50z" />
    <glyph glyph-name="uniFEDBFB51" unicode="&#xfedb;&#xfb51;" horiz-adv-x="594" 
d="M60 664q0 22 13 35t33 13q29 0 42 -31q21 -205 26 -249q54 74 188 170t175 96q15 0 25.5 -12.5t10.5 -27.5q0 -21 -20 -34q-6 -3 -43.5 -24.5t-60 -35.5t-61 -40t-77.5 -57t-78 -68q20 -8 55 -21t54 -20t48 -20t44.5 -22.5t34.5 -25t28.5 -31t16.5 -36t7 -44.5
q0 -77 -59 -128t-131 -51q-146 0 -184 141q-17 61 -49.5 256.5t-37.5 266.5zM453 160q0 16 -5.5 29.5t-21 26.5t-29 22.5t-44.5 23.5t-51 22t-64 26q-11 4 -17 6.5t-15.5 6.5t-17.5 7q9 -64 23 -129q14 -68 39 -90.5t82 -22.5q40 0 73.5 18t47.5 54zM141 939q27 0 44 -22
t17 -50q0 -30 -19 -46q-31 -28 -121 -42q-23 -3 -33 -9t-10 -21q0 -1 -3 -1q-5 0 -10 8t-5 19q0 19 13 32t34 17q4 16 9.5 31.5t16 36.5t28 34t39.5 13zM167 871q0 17 -28 17q-36 0 -65 -61q31 4 54 13.5t31 17.5t8 13z" />
    <glyph glyph-name="uniFEDCFB51" unicode="&#xfedc;&#xfb51;" horiz-adv-x="731" 
d="M747 72v-56q0 -16 -16 -16t-32 3.5t-29 7.5t-30.5 14l-28 16t-31 22.5t-29 23.5t-33.5 28t-34 28q0 -71 -50.5 -107t-116.5 -36q-132 0 -170 141q-17 62 -49.5 257t-37.5 266q0 22 13 35t33 13q29 0 42 -31q2 -14 5.5 -54.5t8 -83.5t9.5 -82q49 68 179.5 153.5
t176.5 85.5q20 0 32 -13t12 -30q0 -24 -22 -34q-67 -30 -106.5 -50t-95 -57.5t-105.5 -84.5q126 -90 261 -197.5t149 -117.5q38 -27 79 -28q16 0 16 -16zM429 160q0 7 -3 15t-10.5 17t-15.5 17.5t-23 21t-27.5 22.5t-34.5 26t-39 28t-45.5 33t-49.5 36q16 -114 30 -175
q13 -59 35 -86t75 -27q45 0 73.5 19.5t34.5 52.5zM141 939q27 0 44 -22t17 -50q0 -30 -19 -46q-31 -28 -121 -42q-23 -3 -33 -9t-10 -21q0 -1 -3 -1q-5 0 -10 8t-5 19q0 19 13 32t34 17q4 16 9.5 31.5t16 36.5t28 34t39.5 13zM167 871q0 17 -28 17q-36 0 -65 -61
q31 4 54 13.5t31 17.5t8 13z" />
    <glyph glyph-name="uniFEDBFEDE" unicode="&#xfedb;&#xfede;" horiz-adv-x="865" 
d="M498 58l-3 -1q4 -60 4 -74q0 -60 -34 -96q-33 -34 -90 -56t-126 -22q-100 0 -154.5 47.5t-54.5 129.5q0 63 27 125t61 62q10 0 15 -4q-39 -66 -39 -132q0 -60 40.5 -98.5t114.5 -38.5q56 0 109 20.5t73 52.5q-6 38 -36 206t-53.5 306t-26.5 179q0 22 13 35t33 13
q29 0 42 -31q5 -56 32 -249q54 74 188 170t175 96q15 0 25.5 -12.5t10.5 -27.5q0 -21 -20 -34q-6 -3 -43.5 -24.5t-60 -35.5t-61 -40t-77.5 -57t-78 -68q20 -8 55 -21t54 -20t48 -20t44.5 -22.5t34.5 -25t28.5 -31t16.5 -36t7 -44.5q0 -77 -58.5 -128t-129.5 -51
q-77 0 -106 58zM460 330q13 -85 22 -129q10 -47 31 -73.5t41.5 -33t48.5 -6.5q40 0 73.5 18t47.5 54q0 44 -47.5 73.5t-168.5 77.5q-31 12 -48 19z" />
    <glyph glyph-name="uniFEDCFEDE" unicode="&#xfedc;&#xfede;" horiz-adv-x="1003" 
d="M1019 72v-56q0 -16 -24 -16q-19 0 -41.5 7.5t-39 15.5t-43.5 27.5t-38.5 28.5t-41.5 34t-35 30v-5q0 -67 -49 -102.5t-106 -35.5q-75 0 -103 58l-3 -1q4 -60 4 -74q0 -60 -34 -96q-33 -34 -90 -56t-126 -22q-100 0 -154.5 47.5t-54.5 129.5q0 63 27 125t61 62q10 0 15 -4
q-39 -66 -39 -132q0 -60 40.5 -98.5t114.5 -38.5q56 0 109 20.5t73 52.5q-6 38 -36 206t-53.5 306t-26.5 179q0 22 13 35t33 13q29 0 42 -31q6 -62 29 -221q48 68 179.5 154t181.5 86q18 0 29 -13t11 -30q0 -24 -22 -34q-72 -33 -111 -52.5t-92 -56t-104 -83.5
q127 -90 262 -198t148 -117q25 -18 39 -22t40 -6q16 -1 16 -16zM701 160q0 7 -3 15t-10.5 17t-15.5 17.5t-22.5 21t-27.5 22.5t-34.5 26t-38.5 28.5t-45.5 32.5t-49.5 36q18 -123 28 -175q14 -67 41 -90t70 -23q45 0 73.5 19.5t34.5 52.5z" />
    <glyph glyph-name="uniFEDBFEE0" unicode="&#xfedb;&#xfee0;" horiz-adv-x="610" 
d="M-16 16v56q0 15 16 16q19 1 31 3t35 9t37 19t26.5 35t15.5 54q-20 103 -43.5 250.5t-27.5 205.5q0 22 12 35t32 13q31 0 44 -30q1 -12 10.5 -104t15.5 -146q54 74 189 170t176 96q15 0 25.5 -11t10.5 -26q0 -22 -22 -37q-5 -3 -41 -23.5t-73 -43t-95 -66t-111 -92.5
q20 -8 55 -21t54 -20t48 -20t44.5 -22.5t34.5 -25t28.5 -31t16.5 -36t7 -44.5q0 -78 -58.5 -128.5t-137.5 -50.5q-123 0 -165 101q-28 -52 -75 -76.5t-90 -24.5q-16 0 -20.5 3.5t-4.5 12.5zM201 330q14 -94 25 -135q17 -69 41 -88t79 -19q39 0 74.5 20t46.5 52
q0 44 -48 73.5t-169 77.5q-32 12 -49 19z" />
    <glyph glyph-name="uniFEDCFEE0" unicode="&#xfedc;&#xfee0;" horiz-adv-x="745" 
d="M761 72v-56q0 -16 -24 -16q-19 0 -41.5 7.5t-39 15.5t-43.5 27.5t-38.5 28.5t-41.5 34t-35 30q0 -71 -50.5 -107t-116.5 -36q-110 0 -157 102q-27 -52 -74.5 -77t-90.5 -25q-16 0 -20.5 3.5t-4.5 12.5v56q0 15 16 16q24 2 40.5 5.5t43 14.5t42.5 37t19 65
q-63 330 -71 454q0 22 12 35t32 13q31 0 44 -30q17 -166 24 -219q50 69 180 153t179 84q18 0 29 -13t11 -30q0 -24 -22 -34q-69 -31 -108 -51t-94 -57t-105 -84q127 -90 262 -198t148 -117q25 -17 38.5 -21.5t40.5 -6.5q16 -1 16 -16zM197 375q15 -127 29 -180
q11 -48 30.5 -73t36 -29.5t42.5 -4.5q45 0 73.5 19.5t34.5 52.5q0 9 -5 19t-17.5 23t-24.5 24.5t-37 30t-44 32.5t-55.5 40.5t-62.5 45.5z" />
    <glyph glyph-name="uni06A1.init" unicode="&#x6a1;" horiz-adv-x="403" 
d="M0 0q-16 0 -16 16v56q0 16 16 16q217 0 284 87q2 26 2 44q0 25 -3 52q-20 -28 -54 -52t-75 -24q-47 0 -81.5 28.5t-34.5 84.5q0 77 48 133t111 56q54 0 90.5 -38t50.5 -90.5t14 -113.5q0 -66 -15 -111q-22 -68 -112.5 -106t-224.5 -38zM191 283q53 0 87 17
q-26 109 -121 109q-23 0 -39.5 -15.5t-16.5 -44.5q0 -33 28 -49.5t62 -16.5z" />
    <glyph glyph-name="uni06A1.medi" unicode="&#x6a1;" horiz-adv-x="415" 
d="M414 0h-5q-128 0 -211 39q-87 -39 -192 -39h-5q-17 0 -17 17v54q0 17 17 17h4q57 0 111 14q-40 51 -40 125q0 61 53 133.5t113 72.5q52 0 82.5 -56.5t30.5 -120.5q0 -90 -64 -154q53 -14 118 -14h5q17 0 17 -17v-54q0 -17 -17 -17zM296 239q0 40 -20 73t-55 33
q-36 0 -61 -28.5t-25 -78.5q0 -56 70 -101q42 23 66.5 50t24.5 52z" />
    <glyph glyph-name="uni06A1.fina" unicode="&#x6a1;" horiz-adv-x="878" 
d="M305 -31q-117 0 -183.5 58.5t-66.5 158.5q0 64 24 116t50 52q6 0 12 -3q-27 -54 -27 -107q0 -82 53 -129.5t162 -47.5q142 0 250 34q-40 48 -40 116q0 78 53 147t113 69q36 0 62.5 -29.5t38.5 -69t12 -79.5q0 -86 -64 -153q54 -14 123 -14q17 0 17 -17v-54q0 -17 -17 -17
h-4q-141 0 -228 48q-146 -79 -340 -79zM598 249q0 -67 72 -112q89 52 89 109q0 31 -19.5 65t-57.5 34q-36 0 -60 -30.5t-24 -65.5z" />
    <glyph glyph-name="uni06C2.fina" unicode="&#x6c2;" horiz-adv-x="411" 
d="M427 72v-56q0 -16 -16 -16q-71 0 -105.5 26t-47.5 90q-8 39 -46 39q-37 0 -87 -28.5t-77 -62.5q-18 12 -18 32q0 47 65 96t140 49q23 0 38.5 -5t23.5 -15.5t11 -19.5t6 -24q10 -50 28.5 -69.5t68.5 -19.5q16 0 16 -16zM162 384q-27 24 -27 54q0 32 33.5 60t63.5 28
q43 0 43 -34q0 -15 -7.5 -26.5t-16.5 -11.5q-2 0 -8 2q-5 18 -31 18q-18 0 -30 -6t-12 -15q0 -14 16 -23t44 -9q20 0 58 10q9 0 15 -7.5t6 -17.5q0 -18 -15 -24q-33 -5 -53.5 -10.5t-49.5 -22t-48 -42.5q-14 10 -14 27q0 15 9.5 29t23.5 21z" />
    <glyph glyph-name="uni06C3.fina" unicode="&#x6c3;" horiz-adv-x="411" 
d="M427 72v-56q0 -16 -16 -16q-71 0 -105.5 26t-47.5 90q-8 39 -46 39q-37 0 -87 -28.5t-77 -62.5q-18 12 -18 32q0 47 65 96t140 49q23 0 38.5 -5t23.5 -15.5t11 -19.5t6 -24q10 -50 28.5 -69.5t68.5 -19.5q16 0 16 -16zM263 327q-50 18 -59 61q9 46 59 62q49 -16 59 -62
q-10 -43 -59 -61zM116 327q-48 18 -58 61q10 46 58 62q51 -17 60 -62q-9 -43 -60 -61z" />
    <glyph glyph-name="uni06D5.fina" unicode="&#x6d5;" horiz-adv-x="460" 
d="M476 72v-56q0 -16 -16 -16q-60 0 -94.5 28t-55.5 83q-58 -58 -136 -58q-67 0 -100.5 37.5t-33.5 86.5q0 37 12.5 63t41.5 46t59.5 34t82.5 34q13 4 19 7q-6 43 -7 57q1 20 14 31.5t31 11.5q28 0 40 -26q20 -169 28 -206q6 -29 11 -47t16 -43t29 -38t43 -13q16 0 16 -16z
M291 173q-1 3 -3.5 14.5t-3.5 18.5q-12 55 -17 85q-10 -3 -27.5 -8t-26.5 -7.5t-23 -7t-21 -8t-17 -9t-15 -10.5t-10 -11.5t-7 -14.5t-2 -18q0 -26 20.5 -42t52.5 -16q51 0 100 34zM209 542q-27 24 -27 54q0 32 33.5 60t63.5 28q43 0 43 -34q0 -15 -7.5 -26.5t-16.5 -11.5
q-2 0 -8 2q-5 18 -31 18q-18 0 -30 -6t-12 -15q0 -14 16 -23t44 -9q20 0 58 10q9 0 15 -7.5t6 -17.5q0 -18 -15 -24q-33 -5 -53.5 -10.5t-49.5 -22t-48 -42.5q-14 10 -14 27q0 15 9.5 29t23.5 21z" />
    <glyph glyph-name="uniFB50" unicode="&#x671;" horiz-adv-x="282" arabic-form="isolated" 
d="M106 0q28 73 28 185q0 62 -10 142t-27 186t-23 149q0 25 13 38t32 13q31 0 43 -33q2 -19 26.5 -201.5t24.5 -281.5q0 -63 -18 -111.5t-39.5 -69.5t-38.5 -21q-8 0 -11 5zM141 939q27 0 44 -22t17 -50q0 -30 -19 -46q-31 -28 -121 -42q-23 -3 -33 -9t-10 -21q0 -1 -3 -1
q-5 0 -10 8t-5 19q0 19 13 32t34 17q4 16 9.5 31.5t16 36.5t28 34t39.5 13zM167 871q0 17 -28 17q-36 0 -65 -61q31 4 54 13.5t31 17.5t8 13z" />
    <glyph glyph-name="uniFB51" unicode="&#x671;" horiz-adv-x="340" arabic-form="final" 
d="M355 72v-56q0 -16 -16 -16q-51 0 -90.5 16.5t-62.5 45t-35.5 56t-19.5 59.5q-20 91 -42.5 250t-28.5 237q0 22 13 35t33 13q29 0 42 -31q1 -14 9.5 -112t12.5 -136t14 -109t21 -123q13 -61 40 -87t94 -26q16 0 16 -16zM141 939q27 0 44 -22t17 -50q0 -30 -19 -46
q-31 -28 -121 -42q-23 -3 -33 -9t-10 -21q0 -1 -3 -1q-5 0 -10 8t-5 19q0 19 13 32t34 17q4 16 9.5 31.5t16 36.5t28 34t39.5 13zM167 871q0 17 -28 17q-36 0 -65 -61q31 4 54 13.5t31 17.5t8 13z" />
    <glyph glyph-name="uniFB56" unicode="&#x67e;" horiz-adv-x="818" arabic-form="isolated" 
d="M650 320q-1 3 -1 10q0 19 12.5 32.5t32.5 13.5q27 0 44.5 -28t22.5 -60t5 -67q0 -99 -57 -143q-54 -43 -153.5 -70.5t-201.5 -27.5q-150 0 -224.5 60t-74.5 165q0 66 24.5 114.5t50.5 48.5q6 0 11 -3q-27 -55 -27 -107q0 -83 66 -131.5t207 -48.5q55 0 108 8t88 19
t62.5 22.5t40.5 19.5l13 8q0 80 -49 165zM454 -94q49 -18 59 -61q-10 -46 -59 -62q-50 16 -59 62q9 43 59 61zM307 -94q51 -18 60 -61q-9 -45 -60 -62q-48 16 -58 62q10 43 58 61zM380 -212q50 -18 60 -62q-10 -44 -60 -62q-48 17 -58 62q10 44 58 62z" />
    <glyph glyph-name="uniFB57" unicode="&#x67e;" horiz-adv-x="867" arabic-form="final" 
d="M341 -20q-140 0 -213 59t-73 163q0 68 24.5 120t51.5 52q7 0 11 -3q-27 -65 -27 -120q0 -79 66.5 -126t191.5 -47q61 0 118.5 10t95.5 25t67.5 29.5t43.5 24.5l13 10l10 51q5 12 25 12q24 0 31 -12q-11 -27 -11 -55q0 -85 101 -85q16 0 16 -16v-56q0 -16 -16 -16
q-138 0 -152 96h-4q-64 -51 -165.5 -83.5t-204.5 -32.5zM429 -94q49 -18 59 -61q-10 -46 -59 -62q-50 16 -59 62q9 43 59 61zM282 -94q51 -18 60 -61q-9 -45 -60 -62q-48 16 -58 62q10 43 58 61zM355 -212q50 -18 60 -62q-10 -44 -60 -62q-48 17 -58 62q10 44 58 62z" />
    <glyph glyph-name="uniFB58" unicode="&#x67e;" horiz-adv-x="297" arabic-form="initial" 
d="M-16 16v56q0 16 16 16q70 0 116.5 15.5t63.5 31.5q-8 100 -59 182q-1 5 -1 10q0 18 13 32t32 14q24 0 41.5 -18.5t25.5 -49t11.5 -59.5t3.5 -60q0 -94 -57 -138q-60 -48 -190 -48q-16 0 -16 16zM222 -94q49 -18 59 -61q-10 -46 -59 -62q-50 16 -59 62q9 43 59 61zM75 -94
q51 -18 60 -61q-9 -45 -60 -62q-48 16 -58 62q10 43 58 61zM148 -212q50 -18 60 -62q-10 -44 -60 -62q-48 17 -58 62q10 44 58 62z" />
    <glyph glyph-name="uniFB59" unicode="&#x67e;" horiz-adv-x="377" arabic-form="medial" 
d="M393 72v-56q0 -16 -16 -16q-80 0 -123 24.5t-54 56.5h-4q-22 -44 -78.5 -62.5t-117.5 -18.5q-16 0 -16 16v56q0 16 16 16q182 0 187 139q6 14 27 14q24 0 29 -14q-5 -25 -5 -40q0 -99 139 -99q16 0 16 -16zM265 -94q49 -18 59 -61q-10 -46 -59 -62q-50 16 -59 62
q9 43 59 61zM118 -94q51 -18 60 -61q-9 -45 -60 -62q-48 16 -58 62q10 43 58 61zM191 -212q50 -18 60 -62q-10 -44 -60 -62q-48 17 -58 62q10 44 58 62z" />
    <glyph glyph-name="uniFB66" unicode="&#x679;" horiz-adv-x="818" arabic-form="isolated" 
d="M650 320q-1 3 -1 10q0 19 12.5 32.5t32.5 13.5q27 0 44.5 -28t22.5 -60t5 -67q0 -99 -57 -143q-54 -43 -153.5 -70.5t-201.5 -27.5q-150 0 -224.5 60t-74.5 165q0 66 24.5 114.5t50.5 48.5q6 0 11 -3q-27 -55 -27 -107q0 -83 66 -131.5t207 -48.5q55 0 108 8t88 19
t62.5 22.5t40.5 19.5l13 8q0 80 -49 165zM308 523q9 -1 26 -1h6q7 25 10 33q-1 42 -16 90t-15 60q0 32 25 35q12 -1 21 -14t13 -26l3 -12q-2 -10 -15 -13q8 -31 12 -67q24 33 61 33q28 0 45 -22t17 -50q0 -36 -24 -55q-53 -42 -157 -42q-21 3 -21 28q0 16 9 23zM462 569
q0 7 -8 12.5t-20 5.5q-40 0 -66 -63q41 5 67.5 19.5t26.5 25.5z" />
    <glyph glyph-name="uniFB67" unicode="&#x679;" horiz-adv-x="867" arabic-form="final" 
d="M341 -20q-140 0 -213 59t-73 163q0 68 24.5 120t51.5 52q7 0 11 -3q-27 -65 -27 -120q0 -79 66.5 -126t191.5 -47q61 0 118.5 10t95.5 25t67.5 29.5t43.5 24.5l13 10l10 51q5 12 25 12q24 0 31 -12q-11 -27 -11 -55q0 -85 101 -85q16 0 16 -16v-56q0 -16 -16 -16
q-138 0 -152 96h-4q-64 -51 -165.5 -83.5t-204.5 -32.5zM323 507q9 -1 26 -1h6q7 25 10 33q-1 42 -16 90t-15 60q0 32 25 35q12 -1 21 -14t12 -26l4 -12q-2 -10 -15 -13q8 -31 12 -67q24 33 61 33q28 0 45 -22t17 -50q0 -36 -24 -55q-52 -42 -157 -42q-21 3 -21 28
q0 16 9 23zM477 553q0 7 -8 12.5t-20 5.5q-40 0 -66 -63q41 5 67.5 19.5t26.5 25.5z" />
    <glyph glyph-name="uniFB68" unicode="&#x679;" horiz-adv-x="297" arabic-form="initial" 
d="M-16 16v56q0 16 16 16q70 0 116.5 15.5t63.5 31.5q-8 100 -59 182q-1 5 -1 10q0 18 13 32t32 14q24 0 41.5 -18.5t25.5 -49t11.5 -59.5t3.5 -60q0 -94 -57 -138q-60 -48 -190 -48q-16 0 -16 16zM46 533q9 -1 26 -1h6q7 25 10 33q-1 42 -16 90t-15 60q0 32 25 35
q12 -1 21 -14t13 -26l3 -12q-2 -10 -15 -13q8 -31 12 -67q24 33 61 33q28 0 45 -22t17 -50q0 -36 -24 -55q-53 -42 -157 -42q-21 3 -21 28q0 16 9 23zM200 579q0 7 -8 12.5t-20 5.5q-40 0 -66 -63q41 5 67.5 19.5t26.5 25.5z" />
    <glyph glyph-name="uniFB69" unicode="&#x679;" horiz-adv-x="377" arabic-form="medial" 
d="M393 72v-56q0 -16 -16 -16q-80 0 -123 24.5t-54 56.5h-4q-22 -44 -78.5 -62.5t-117.5 -18.5q-16 0 -16 16v56q0 16 16 16q182 0 187 139q6 14 27 14q24 0 29 -14q-5 -25 -5 -40q0 -99 139 -99q16 0 16 -16zM112 390q9 -1 26 -1h6q7 25 10 33q-1 42 -16 90t-15 60
q0 32 25 35q12 -1 21 -14t13 -25l3 -13q-2 -10 -15 -13q8 -31 12 -67q24 33 61 33q28 0 45 -22t17 -50q0 -36 -24 -55q-53 -42 -157 -42q-21 3 -21 28q0 16 9 23zM266 436q0 7 -8 12.5t-20 5.5q-40 0 -66 -63q41 5 67.5 19.5t26.5 25.5z" />
    <glyph glyph-name="uniFB6A" unicode="&#x6a4;" horiz-adv-x="853" arabic-form="isolated" 
d="M356 -10q-301 0 -301 219q0 67 24 116.5t51 49.5q6 0 11 -3q-27 -55 -27 -107q0 -81 61.5 -129t175.5 -48q124 0 231.5 27.5t148.5 70.5q6 30 6 65q0 11 -2 35q-20 -28 -53.5 -50t-75.5 -22q-46 0 -79.5 29.5t-33.5 88.5q0 72 48 128t111 56q70 0 110.5 -71.5
t40.5 -163.5q0 -77 -21 -126q-35 -80 -161 -122.5t-265 -42.5zM651 302q42 0 79 16q-10 49 -37 79.5t-72 30.5q-65 0 -65 -57q0 -37 28 -53t67 -16zM725 605q-50 18 -59 61q9 46 59 62q49 -16 59 -62q-10 -43 -59 -61zM578 605q-48 18 -58 61q10 46 58 62q51 -17 60 -62
q-9 -43 -60 -61zM651 723q-48 18 -58 62q10 45 58 62q50 -18 60 -62q-10 -44 -60 -62z" />
    <glyph glyph-name="uniFB6B" unicode="&#x6a4;" horiz-adv-x="878" arabic-form="final" 
d="M305 -31q-117 0 -183.5 58.5t-66.5 158.5q0 64 24 116t50 52q6 0 12 -3q-27 -54 -27 -107q0 -82 53 -129.5t162 -47.5q142 0 250 34q-40 48 -40 116q0 78 53 147t113 69q36 0 62.5 -29.5t38.5 -69t12 -79.5q0 -86 -64 -153q54 -14 123 -14q17 0 17 -17v-54q0 -17 -17 -17
h-4q-141 0 -228 48q-146 -79 -340 -79zM598 249q0 -67 72 -112q89 52 89 109q0 31 -19.5 65t-57.5 34q-36 0 -60 -30.5t-24 -65.5zM778 522q-50 18 -59 61q9 46 59 62q49 -16 59 -62q-10 -43 -59 -61zM631 522q-48 18 -58 61q10 46 58 62q51 -17 60 -62q-9 -43 -60 -61z
M704 640q-48 18 -58 62q10 45 58 62q50 -18 60 -62q-10 -44 -60 -62z" />
    <glyph glyph-name="uniFB6C" unicode="&#x6a4;" horiz-adv-x="403" arabic-form="initial" 
d="M0 0q-16 0 -16 16v56q0 16 16 16q217 0 284 87q2 26 2 44q0 25 -3 52q-20 -28 -54 -52t-75 -24q-47 0 -81.5 28.5t-34.5 84.5q0 77 48 133t111 56q54 0 90.5 -38t50.5 -90.5t14 -113.5q0 -66 -15 -111q-22 -68 -112.5 -106t-224.5 -38zM191 283q53 0 87 17
q-26 109 -121 109q-23 0 -39.5 -15.5t-16.5 -44.5q0 -33 28 -49.5t62 -16.5zM271 586q-50 18 -59 61q9 46 59 62q49 -16 59 -62q-10 -43 -59 -61zM124 586q-48 18 -58 61q10 46 58 62q51 -17 60 -62q-9 -43 -60 -61zM197 704q-48 18 -58 62q10 45 58 62q50 -18 60 -62
q-10 -44 -60 -62z" />
    <glyph glyph-name="uniFB6D" unicode="&#x6a4;" horiz-adv-x="415" arabic-form="medial" 
d="M414 0h-5q-128 0 -211 39q-87 -39 -192 -39h-5q-17 0 -17 17v54q0 17 17 17h4q57 0 111 14q-40 51 -40 125q0 61 53 133.5t113 72.5q52 0 82.5 -56.5t30.5 -120.5q0 -90 -64 -154q53 -14 118 -14h5q17 0 17 -17v-54q0 -17 -17 -17zM296 239q0 40 -20 73t-55 33
q-36 0 -61 -28.5t-25 -78.5q0 -56 70 -101q42 23 66.5 50t24.5 52zM315 522q-50 18 -59 61q9 46 59 62q49 -16 59 -62q-10 -43 -59 -61zM168 522q-48 18 -58 61q10 46 58 62q51 -17 60 -62q-9 -43 -60 -61zM241 640q-48 18 -58 62q10 45 58 62q50 -18 60 -62
q-10 -44 -60 -62z" />
    <glyph glyph-name="uniFB7A" unicode="&#x686;" horiz-adv-x="684" arabic-form="isolated" 
d="M562 -256q10 -4 10 -15q0 -37 -67 -80t-161 -43q-117 0 -198 71t-81 190q0 66 28 123t68 94t90 66t87 42.5t66 20.5q-110 66 -193 66q-38 0 -66 -18t-28 -56q0 -10 2 -22q-2 -2 -7 -2q-15 0 -30.5 22.5t-15.5 57.5q0 50 35 80.5t101 30.5q50 0 106 -19.5t98 -43.5
t96 -43.5t100 -19.5q21 -13 21 -42q0 -37 -37 -48q-28 2 -45 2q-64 0 -133.5 -17.5t-132 -49.5t-103 -85.5t-40.5 -118.5q0 -62 38 -105t90 -60.5t112 -17.5q43 0 90.5 10t73.5 20zM435 15q44 -16 53 -55q-9 -40 -53 -55q-45 15 -52 55q7 38 52 55zM304 15q46 -16 53 -55
q-7 -40 -53 -55q-43 14 -52 55q9 39 52 55zM369 -90q44 -16 54 -56q-11 -41 -54 -55q-41 14 -52 55q10 40 52 56z" />
    <glyph glyph-name="uniFB7B" unicode="&#x686;" horiz-adv-x="621" arabic-form="final" 
d="M637 72v-56q0 -16 -16 -16h-5q-65 0 -110.5 23.5t-45.5 79.5q0 24 7 49q-61 -9 -118.5 -29.5t-107 -52.5t-79.5 -79.5t-30 -103.5q0 -62 38 -105t90 -60.5t112 -17.5q43 0 90.5 10t73.5 20l26 10q10 -4 10 -15q0 -37 -67 -80t-161 -43q-117 0 -198 71t-81 190
q0 66 28 123t68 94t90 66t87 42.5t66 20.5q-110 66 -193 66q-38 0 -66 -18t-28 -56q0 -10 2 -22q-2 -2 -7 -2q-15 0 -30.5 22.5t-15.5 57.5q0 50 35 80.5t101 30.5q50 0 106 -19.5t98 -43.5t96 -43.5t100 -19.5q21 -13 21 -42q0 -37 -37 -48q-14 2 -45 2q-32 0 -59 -4
q5 -22 17 -35.5t32 -20t39 -8.5t46 -2h5q16 0 16 -16zM414 -10q44 -16 53 -55q-9 -40 -53 -55q-45 15 -52 55q7 38 52 55zM283 -10q46 -16 53 -55q-7 -40 -53 -55q-43 14 -52 55q9 39 52 55zM348 -115q44 -16 54 -56q-11 -41 -54 -55q-41 14 -52 55q10 40 52 56z" />
    <glyph glyph-name="uniFB7C" unicode="&#x686;" horiz-adv-x="691" arabic-form="initial" 
d="M419 203v4q-128 72 -201 72q-41 0 -67.5 -18t-26.5 -56q0 -14 2 -22q-2 -2 -6 -2q-15 0 -31 22t-16 57q0 52 37 82t100 30q51 0 107 -20t97 -44t94.5 -44t100.5 -20q21 -13 21 -42q0 -37 -37 -48q-30 2 -41 2q-53 0 -100.5 -16.5t-88 -39.5t-86.5 -46t-117.5 -39.5
t-159.5 -16.5q-16 0 -16 16v56q0 16 16 16q86 0 160 15t113.5 32.5t83 40t62.5 29.5zM341 -94q49 -18 59 -61q-10 -46 -59 -62q-50 16 -59 62q9 43 59 61zM194 -94q51 -18 60 -61q-9 -45 -60 -62q-48 16 -58 62q10 43 58 61zM267 -212q50 -18 60 -62q-10 -44 -60 -62
q-48 17 -58 62q10 44 58 62z" />
    <glyph glyph-name="uniFB7D" unicode="&#x686;" horiz-adv-x="628" arabic-form="medial" 
d="M644 72v-56q0 -16 -16 -16h-10q-63 0 -107.5 23.5t-44.5 75.5q0 25 6 47q-40 -11 -92 -37.5t-93.5 -50t-117.5 -42t-169 -18.5q-16 0 -16 16v56q0 16 16 16q86 0 160 15t113.5 32.5t83 40t62.5 29.5v4q-126 71 -201 71q-41 0 -67.5 -18t-26.5 -56q0 -14 2 -22
q-2 -2 -6 -2q-15 0 -31 22t-16 57q0 52 37 82t100 30q51 0 107 -20t97 -43.5t94.5 -43.5t100.5 -20q21 -13 21 -42q0 -37 -37 -48q-30 2 -41 2q-24 0 -62 -6q7 -27 29.5 -41.5t45.5 -17.5t58 -3h5q16 0 16 -16zM340 -94q49 -18 59 -61q-10 -46 -59 -62q-50 16 -59 62
q9 43 59 61zM193 -94q51 -18 60 -61q-9 -45 -60 -62q-48 16 -58 62q10 43 58 61zM266 -212q50 -18 60 -62q-10 -44 -60 -62q-48 17 -58 62q10 44 58 62z" />
    <glyph glyph-name="uniFB88" unicode="&#x688;" horiz-adv-x="471" arabic-form="isolated" 
d="M153 87q55 0 110.5 17.5t84.5 37.5q0 39 -37.5 112t-80.5 127q-4 11 -4 23q0 22 14.5 37t35.5 15q19 0 36 -14q46 -59 75 -135.5t29 -138.5q0 -80 -52 -115q-36 -25 -95.5 -41t-109.5 -16q-63 0 -89 27t-26 77q0 37 12 56.5t29 19.5q7 0 11 -3q-3 -9 -3 -25q0 -61 60 -61
zM136 603q9 -1 26 -1h6q7 25 10 33q-1 42 -16 90t-15 60q0 32 25 35q12 -1 21 -14t13 -26l3 -12q-2 -10 -15 -13q8 -31 12 -67q24 33 61 33q28 0 45 -22t17 -50q0 -36 -24 -55q-53 -42 -157 -42q-21 3 -21 28q0 16 9 23zM290 649q0 7 -8 12.5t-20 5.5q-40 0 -66 -63
q41 5 67.5 19.5t26.5 25.5z" />
    <glyph glyph-name="uniFB89" unicode="&#x688;" horiz-adv-x="536" arabic-form="final" 
d="M552 72v-56q0 -16 -16 -16q-121 0 -178 92q-4 -22 -19 -35q-27 -26 -87 -43.5t-106 -17.5q-102 0 -102 105q0 36 11 55.5t28 19.5q7 0 11 -3q-3 -13 -3 -29q0 -57 67 -57q40 0 89.5 17.5t85.5 39.5q-6 16 -9 33q-48 182 -60 311q0 22 11.5 35t31.5 13q29 0 42 -31
q1 -8 5 -45t5 -46.5t5.5 -40.5t8 -50.5t10 -52t15.5 -69.5q14 -61 43 -87t95 -26q16 0 16 -16zM194 684q9 -1 26 -1h6q7 25 10 33q-1 42 -16 90t-15 60q0 32 25 35q12 -1 21 -14t13 -25l3 -13q-2 -10 -15 -13q8 -31 12 -67q24 33 61 33q28 0 45 -22t17 -50q0 -36 -24 -55
q-53 -42 -157 -42q-21 3 -21 28q0 16 9 23zM348 730q0 7 -8 12.5t-20 5.5q-40 0 -66 -63q41 5 67.5 19.5t26.5 25.5z" />
    <glyph glyph-name="uniFB8A" unicode="&#x698;" horiz-adv-x="351" arabic-form="isolated" 
d="M174 249q-3 8 -3 17q0 19 14 32t32 13q25 0 39 -22q24 -34 39.5 -84t15.5 -86q0 -56 -26 -118t-76 -109t-109 -47q-45 0 -82.5 33.5t-37.5 66.5q0 17 14 17q9 -13 27.5 -26t36.5 -13q40 0 89 38.5t79 81.5t30 61q0 16 -27.5 63.5t-54.5 81.5zM279 402q-50 18 -59 61
q9 46 59 62q49 -16 59 -62q-10 -43 -59 -61zM132 402q-48 18 -58 61q10 46 58 62q51 -17 60 -62q-9 -43 -60 -61zM205 520q-48 18 -58 62q10 45 58 62q50 -18 60 -62q-10 -44 -60 -62z" />
    <glyph glyph-name="uniFB8B" unicode="&#x698;" horiz-adv-x="402" arabic-form="final" 
d="M418 72v-56q0 -16 -16 -16q-74 4 -98 31h-5q-10 -88 -66.5 -167t-132.5 -79q-45 0 -82.5 33.5t-37.5 66.5q0 17 14 17q9 -13 27.5 -26t36.5 -13q54 0 121.5 74t67.5 106q0 16 -26 61.5t-51 76.5q-2 6 -2 14q0 20 14 32.5t32 12.5t30 -12q9 -23 13.5 -33.5t18.5 -34
t28.5 -35.5t40 -23.5t56.5 -13.5q17 0 17 -16zM267 327q-50 18 -59 61q9 46 59 62q49 -16 59 -62q-10 -43 -59 -61zM120 327q-48 18 -58 61q10 46 58 62q51 -17 60 -62q-9 -43 -60 -61zM193 445q-48 18 -58 62q10 45 58 62q50 -18 60 -62q-10 -44 -60 -62z" />
    <glyph glyph-name="uniFB8C" unicode="&#x691;" horiz-adv-x="351" arabic-form="isolated" 
d="M174 249q-3 8 -3 17q0 19 14 32t32 13q25 0 39 -22q24 -34 39.5 -84t15.5 -86q0 -56 -26 -118t-76 -109t-109 -47q-45 0 -82.5 33.5t-37.5 66.5q0 17 14 17q9 -13 27.5 -26t36.5 -13q40 0 89 38.5t79 81.5t30 61q0 16 -27.5 63.5t-54.5 81.5zM96 461q9 -1 26 -1h6
q7 25 10 33q-1 42 -16 90t-15 60q0 32 25 35q12 -1 21 -14t13 -26l3 -12q-2 -10 -15 -13q8 -31 12 -67q24 33 61 33q28 0 45 -22t17 -50q0 -36 -24 -55q-53 -42 -157 -42q-21 3 -21 28q0 16 9 23zM250 507q0 7 -8 12.5t-20 5.5q-40 0 -66 -63q41 5 67.5 19.5t26.5 25.5z" />
    <glyph glyph-name="uniFB8D" unicode="&#x691;" horiz-adv-x="402" arabic-form="final" 
d="M418 72v-56q0 -16 -16 -16q-74 4 -98 31h-5q-10 -88 -66.5 -167t-132.5 -79q-45 0 -82.5 33.5t-37.5 66.5q0 17 14 17q9 -13 27.5 -26t36.5 -13q54 0 121.5 74t67.5 106q0 16 -26 61.5t-51 76.5q-2 6 -2 14q0 20 14 32.5t32 12.5t30 -12q9 -23 13.5 -33.5t18.5 -34
t28.5 -35.5t40 -23.5t56.5 -13.5q17 0 17 -16zM93 390q9 -1 26 -1h6q7 25 10 33q-1 42 -16 90t-15 60q0 32 25 35q12 -1 21 -14t12 -25l4 -13q-2 -10 -15 -13q8 -31 12 -67q24 33 61 33q28 0 45 -22t17 -50q0 -36 -24 -55q-52 -42 -157 -42q-21 3 -21 28q0 16 9 23zM247 436
q0 7 -8 12.5t-20 5.5q-40 0 -66 -63q41 5 67.5 19.5t26.5 25.5z" />
    <glyph glyph-name="uniFB8E" unicode="&#x6a9;" horiz-adv-x="841" arabic-form="isolated" 
d="M439 456q20 -12 58.5 -34t64 -37t57.5 -37.5t51 -42t32.5 -45.5t13.5 -53q0 -55 -36.5 -97.5t-96.5 -65.5t-126.5 -34.5t-136.5 -11.5q-139 0 -214.5 59.5t-75.5 163.5q0 57 25 111t50 54q7 0 11 -3q-27 -57 -27 -109q0 -81 66.5 -129.5t191.5 -48.5q60 0 113 9
t85.5 21.5t56 25t32.5 21.5l10 9q0 32 -43.5 67t-110.5 73t-86 53q-36 25 -36 63t51.5 86t117.5 84.5t125.5 62t79.5 25.5q18 0 28.5 -12t10.5 -29q0 -27 -23 -37q-84 -26 -175 -71t-144 -91z" />
    <glyph glyph-name="uniFB8F" unicode="&#x6a9;" horiz-adv-x="936" arabic-form="final" 
d="M936 0h-12q-50 0 -95.5 26t-68.5 52t-53 67l-5 7q-18 -69 -132 -112.5t-250 -43.5q-139 0 -214.5 59.5t-75.5 163.5q0 58 24.5 111.5t50.5 53.5q7 0 11 -3q-27 -55 -27 -107q0 -82 66 -131t192 -49q82 0 149 16.5t95.5 32t48.5 32.5q-3 25 -18 52.5t-46.5 61.5
t-55.5 56.5t-71 64.5q-25 22 -25 47q0 39 88.5 98t186.5 100.5t134 41.5q19 0 31 -12t12 -29q0 -22 -19 -36q-83 -22 -189.5 -68t-164.5 -87q82 -63 142.5 -127t107.5 -123.5t78 -89.5q21 -21 40 -29t53 -8h12q16 0 16 -16v-56q0 -16 -16 -16z" />
    <glyph glyph-name="uniFB90" unicode="&#x6a9;" horiz-adv-x="473" arabic-form="initial" 
d="M-16 16v56q0 15 16 16q71 4 109 8.5t84.5 20.5t77.5 43q0 44 -49 90.5t-192 153.5q-42 29 -42 56q0 38 82.5 96t175.5 99t128 41q17 0 28 -12t11 -28q0 -26 -25 -38q-88 -29 -180 -70.5t-141 -76.5q101 -63 181 -129q95 -79 95 -165q0 -48 -32 -84t-85.5 -55.5
t-109.5 -28.5t-116 -9q-16 0 -16 16z" />
    <glyph glyph-name="uniFB91" unicode="&#x6a9;" horiz-adv-x="512" arabic-form="medial" 
d="M512 0h-12q-51 0 -96.5 25.5t-69.5 52.5t-52 67l-9 13q-16 -74 -88 -116t-185 -42q-16 0 -16 16v56q0 14 16 16q1 0 36.5 1.5t62 5.5t62 22t55.5 49q0 27 -14 55t-46 63.5t-57 58.5t-74 67q-25 22 -25 47q0 39 88.5 98t186.5 100.5t134 41.5q20 0 32 -12t12 -29
q0 -22 -20 -36q-83 -22 -189.5 -68t-164.5 -87q82 -63 142.5 -127t107.5 -123.5t78 -89.5q21 -21 40 -29t53 -8h12q16 0 16 -16v-56q0 -16 -16 -16z" />
    <glyph glyph-name="uniFB92" unicode="&#x6af;" horiz-adv-x="841" arabic-form="isolated" 
d="M404 373q-36 25 -36 63t51.5 86t117.5 84.5t125.5 62t79.5 25.5q18 0 28.5 -12t10.5 -29q0 -27 -23 -37q-84 -26 -175 -71t-144 -91q20 -12 58.5 -34t64 -37t57.5 -37.5t51 -42t32.5 -45.5t13.5 -53q0 -55 -36.5 -97.5t-96.5 -65.5t-126.5 -34.5t-136.5 -11.5
q-139 0 -214.5 59.5t-75.5 163.5q0 57 25 111t50 54q7 0 11 -3q-27 -57 -27 -109q0 -81 66.5 -129.5t191.5 -48.5q60 0 113 9t85.5 21.5t56 25t32.5 21.5l10 9q0 32 -43.5 67t-110.5 73t-86 53zM748 745q-72 -14 -185.5 -74.5t-184.5 -112.5q-6 -2 -10 -2q-10 0 -16.5 7.5
t-6.5 18.5q0 8 3 15q64 60 202 129t186 69q10 0 17 -8t7 -19q0 -15 -12 -23z" />
    <glyph glyph-name="uniFB93" unicode="&#x6af;" horiz-adv-x="936" arabic-form="final" 
d="M835 747q-83 -14 -198.5 -67.5t-189.5 -103.5q-6 -2 -10 -2q-10 0 -17 8t-7 19q0 7 4 14q63 55 213 118t193 63q10 0 17 -8t7 -19q0 -14 -12 -22zM936 0h-12q-50 0 -95.5 26t-68.5 52t-53 67l-5 7q-18 -69 -132 -112.5t-250 -43.5q-139 0 -214.5 59.5t-75.5 163.5
q0 58 24.5 111.5t50.5 53.5q7 0 11 -3q-27 -55 -27 -107q0 -82 66 -131t192 -49q82 0 149 16.5t95.5 32t48.5 32.5q-3 25 -18 52.5t-46.5 61.5t-55.5 56.5t-71 64.5q-25 22 -25 47q0 39 88.5 98t186.5 100.5t134 41.5q19 0 30.5 -12t11.5 -29q0 -22 -18 -36
q-83 -22 -189.5 -68t-164.5 -87q82 -63 142.5 -127t107.5 -123.5t78 -89.5q21 -21 40 -29t53 -8h12q16 0 16 -16v-56q0 -16 -16 -16z" />
    <glyph glyph-name="uniFB94" unicode="&#x6af;" horiz-adv-x="489" arabic-form="initial" 
d="M16 0h-3h-2h2q-13 1 -13 16v56q0 15 16 16q71 4 109 8.5t84.5 20.5t77.5 43q0 44 -49 90.5t-192 153.5q-42 29 -42 56q0 38 82.5 96t175.5 99t128 41q17 0 28 -12t11 -28q0 -26 -25 -38q-88 -29 -180 -70.5t-141 -76.5q101 -63 181 -129q95 -79 95 -165q0 -48 -32 -84
t-85.5 -55.5t-109.5 -28.5t-116 -9zM406 747q-82 -13 -194.5 -70.5t-193.5 -113.5q-6 -2 -10 -2q-10 0 -17 8t-7 19q0 7 4 14q65 57 212.5 126t193.5 69q10 0 17 -8.5t7 -19.5q0 -13 -12 -22z" />
    <glyph glyph-name="uniFB95" unicode="&#x6af;" horiz-adv-x="512" arabic-form="medial" 
d="M512 0h-12q-51 0 -96.5 25.5t-69.5 52.5t-52 67l-9 13q-16 -74 -88 -116t-185 -42q-16 0 -16 16v56q0 14 16 16q1 0 36.5 1.5t62 5.5t62 22t55.5 49q0 27 -14 55t-46 63.5t-57 58.5t-74 67q-25 22 -25 47q0 39 88.5 98t186.5 100.5t134 41.5q18 0 30 -12t12 -29
q0 -21 -18 -36q-83 -22 -189.5 -68t-164.5 -87q82 -63 142.5 -127t107.5 -123.5t78 -89.5q21 -21 40 -29t53 -8h12q16 0 16 -16v-56q0 -16 -16 -16zM424 747q-83 -14 -198.5 -67.5t-189.5 -103.5q-6 -2 -10 -2q-11 0 -17.5 8t-6.5 19q0 8 4 14q63 55 213 118t193 63
q10 0 17 -8t7 -19q0 -14 -12 -22z" />
    <glyph glyph-name="uniFB9E" unicode="&#x6ba;" horiz-adv-x="571" arabic-form="isolated" 
d="M457 93q-6 62 -33.5 131t-55.5 111q0 26 14 39.5t32 13.5q45 0 76 -90t31 -193q0 -62 -31 -103q-33 -44 -101 -77.5t-148 -33.5q-104 0 -157.5 59.5t-53.5 153.5q0 76 29 143t66 67q11 0 16 -4q-42 -75 -42 -155q0 -76 37.5 -124.5t116.5 -48.5q61 0 119.5 29t84.5 82z
" />
    <glyph glyph-name="uniFB9F" unicode="&#x6ba;" horiz-adv-x="633" arabic-form="final" 
d="M649 72v-56q0 -16 -16 -16q-79 3 -112 51h-7q7 -28 7 -57q0 -62 -31 -103q-33 -44 -101 -77.5t-148 -33.5q-104 0 -157.5 59.5t-53.5 153.5q0 76 29 143t66 67q11 0 16 -4q-42 -75 -42 -155q0 -76 37.5 -124.5t116.5 -48.5q61 0 119.5 29t84.5 82q-11 100 -75 226
q0 25 14.5 40.5t34.5 15.5q22 0 38 -17q1 -1 15 -32.5t23 -45t27.5 -37t43 -34t54.5 -10.5q17 0 17 -16z" />
    <glyph glyph-name="uniFBA4" unicode="&#x6c0;" horiz-adv-x="398" arabic-form="isolated" 
d="M121 326l-32 5q-6 13 -6 27q0 24 18.5 40.5t48.5 16.5q76 0 141 -63t65 -161q0 -85 -47.5 -139t-132.5 -54q-69 0 -105 38t-36 96q0 42 10.5 78.5t27.5 60.5t27.5 35.5t20.5 19.5zM170 311q-85 -67 -85 -144q0 -37 29 -58t77 -21q42 0 80.5 21t38.5 54q0 49 -41 87.5
t-99 60.5z" />
    <glyph glyph-name="uniFBA5" unicode="&#x6c0;" horiz-adv-x="460" arabic-form="final" 
d="M476 72v-56q0 -16 -16 -16q-60 0 -94.5 28t-55.5 83q-58 -58 -136 -58q-67 0 -100.5 37.5t-33.5 86.5q0 37 12.5 63t41.5 46t59.5 34t82.5 34q13 4 19 7q-6 43 -7 57q1 20 14 31.5t31 11.5q28 0 40 -26q20 -169 28 -206q6 -29 11 -47t16 -43t29 -38t43 -13q16 0 16 -16z
M291 173q-1 3 -3.5 14.5t-3.5 18.5q-12 55 -17 85q-10 -3 -27.5 -8t-26.5 -7.5t-23 -7t-21 -8t-17 -9t-15 -10.5t-10 -11.5t-7 -14.5t-2 -18q0 -26 20.5 -42t52.5 -16q51 0 100 34z" />
    <glyph glyph-name="uniFBA6" unicode="&#x6c1;" horiz-adv-x="398" arabic-form="isolated" 
d="M121 326l-32 5q-6 13 -6 27q0 24 18.5 40.5t48.5 16.5q76 0 141 -63t65 -161q0 -85 -47.5 -139t-132.5 -54q-69 0 -105 38t-36 96q0 42 10.5 78.5t27.5 60.5t27.5 35.5t20.5 19.5zM170 311q-85 -67 -85 -144q0 -37 29 -58t77 -21q42 0 80.5 21t38.5 54q0 49 -41 87.5
t-99 60.5z" />
    <glyph glyph-name="uniFBA7" unicode="&#x6c1;" horiz-adv-x="411" arabic-form="final" 
d="M427 72v-56q0 -16 -16 -16q-71 0 -105.5 26t-47.5 90q-8 39 -46 39q-37 0 -87 -28.5t-77 -62.5q-18 12 -18 32q0 47 65 96t140 49q23 0 38.5 -5t23.5 -15.5t11 -19.5t6 -24q10 -50 28.5 -69.5t68.5 -19.5q16 0 16 -16z" />
    <glyph glyph-name="uniFBA8" unicode="&#x6c1;" horiz-adv-x="297" arabic-form="initial" 
d="M212 -193q0 -28 -16 -53.5t-45 -25.5q-25 0 -40.5 20.5t-15.5 51.5q0 53 30.5 99t68.5 46q16 0 32 -10q-25 -15 -46 -42t-22 -49q37 -11 54 -37zM-16 16v56q0 16 16 16q70 0 116.5 15.5t63.5 31.5q-8 100 -59 182q-1 3 -1 9q0 19 13 33t32 14q24 0 41.5 -18.5t25.5 -49
t11.5 -59.5t3.5 -60q0 -94 -57 -138q-60 -48 -190 -48q-16 0 -16 16z" />
    <glyph glyph-name="uniFBA9" unicode="&#x6c1;" horiz-adv-x="511" arabic-form="medial" 
d="M527 72v-56q0 -16 -16 -16q-61 0 -90.5 -48t-29.5 -122q0 -32 7 -74q-1 -22 -18.5 -35.5t-33.5 -15.5l-17 -2q-71 43 -109.5 135t-38.5 182q0 25 3 46q-45 -66 -184 -66q-16 0 -16 16v56q0 16 16 16q45 0 88 8.5t80.5 31.5t45.5 57q6 14 28 14q23 0 29 -18
q-28 -60 -28 -131t27 -137.5t72 -110.5q-8 50 -8 84q0 107 51 154.5t126 47.5q16 0 16 -16zM165 -291q0 -28 -16 -53.5t-45 -25.5q-25 0 -40.5 20.5t-15.5 51.5q0 53 30.5 99t68.5 46q16 0 32 -10q-25 -15 -46 -42t-22 -49q37 -11 54 -37z" />
    <glyph glyph-name="uniFBAA" unicode="&#x6be;" horiz-adv-x="681" arabic-form="isolated" 
d="M238 379l-11 3q-6 15 -6 28q0 26 17.5 42.5t48.5 16.5q54 0 135 -45t147.5 -125t66.5 -162q0 -128 -166 -128q-100 0 -180 38q-36 -13 -90.5 -21.5t-96 -19.5t-69.5 -35q-28 10 -28 45q0 27 17 41q16 13 38.5 22t41 12.5t52.5 9t54 9.5q-35 45 -35 105q0 91 64 164z
M308 139q86 34 86 104q0 41 -21.5 77.5t-55.5 36.5t-59 -36.5t-25 -75.5q0 -63 75 -106zM388 106q60 -17 118 -17q38 0 54.5 8.5t16.5 27.5q0 30 -34.5 70.5t-90.5 78.5q1 -6 1 -18q0 -88 -65 -150z" />
    <glyph glyph-name="uniFBAB" unicode="&#x6be;" horiz-adv-x="500" arabic-form="final" 
d="M212 82h23q31 4 83.5 37.5t52.5 76.5q0 34 -12.5 58.5t-36.5 24.5q-35 0 -66 -67.5t-44 -129.5zM224 6h-24q0 -31 12 -71t39 -75t62 -35q34 0 55 18t21 47q0 31 -61 73.5t-104 42.5zM500 0h-123q6 -4 15.5 -11.5t25 -34t15.5 -57.5q0 -35 -11.5 -70t-42 -63.5
t-73.5 -28.5q-78 0 -118.5 58.5t-40.5 145.5q0 32 6 65q-57 -4 -114 -25q-28 10 -28 41q0 23 17 37q56 24 137 31q8 41 25 87.5t42 94t60.5 78.5t73.5 31q29 0 50.5 -39.5t21.5 -98.5q0 -94 -80 -153h142q16 0 16 -16v-56q0 -16 -16 -16z" />
    <glyph glyph-name="uniFBAC" unicode="&#x6be;" horiz-adv-x="595" arabic-form="initial" 
d="M51 0h-51q-17 0 -17 17v54q0 17 17 17h50q40 0 81 12q-43 49 -43 127q0 35 18 77.5t47 74.5l-12 3q-5 11 -5 28q0 25 17 42t45 17q42 0 102 -29t115.5 -73t95 -103.5t39.5 -114.5q0 -65 -37 -102.5t-106 -37.5q-115 0 -192 32q-81 -41 -164 -41zM221 139q39 23 63 50
t24 50q0 46 -21 82t-61 36q-25 0 -52 -34t-27 -85q0 -55 74 -99zM305 105q61 -16 119 -16q67 0 67 33q0 66 -125 152q1 -6 1 -18q0 -86 -62 -151z" />
    <glyph glyph-name="uniFBAD" unicode="&#x6be;" horiz-adv-x="399" arabic-form="medial" 
d="M111 82h23q31 4 83.5 37.5t52.5 76.5q0 34 -12.5 58.5t-36.5 24.5q-35 0 -66 -67.5t-44 -129.5zM123 6h-24q0 -31 12 -71t39 -75t62 -35q34 0 55 18t21 47q0 31 -61 73.5t-104 42.5zM399 0h-123q6 -4 15.5 -11.5t25 -34t15.5 -57.5q0 -35 -11.5 -70t-42 -63.5
t-73.5 -28.5q-77 0 -118 57.5t-41 143.5q0 32 6 64h-52q-16 0 -16 16v56q0 16 16 16h64q8 41 25 87.5t42 94t60.5 78.5t73.5 31q29 0 50.5 -39.5t21.5 -98.5q0 -94 -80 -153h142q16 0 16 -16v-56q0 -16 -16 -16z" />
    <glyph glyph-name="uniFBAE" unicode="&#x6d2;" horiz-adv-x="1079" arabic-form="isolated" 
d="M1012 22q-299 -26 -515 -26q-117 0 -194.5 6t-137.5 22.5t-87.5 46.5t-27.5 77q0 42 21 74t54 54.5t67.5 42t68 46t49.5 56.5q17 34 25 47t19.5 22.5t25.5 9.5q48 0 90.5 -74t42.5 -129q0 -63 -78 -63q0 46 -23 102t-50 56q-9 0 -15.5 -12t-13.5 -29.5t-34.5 -44
t-72.5 -50.5q-35 -18 -52.5 -28.5t-35.5 -29.5t-18 -38q0 -71 418 -71q145 0 472 19q29 -12 29 -41q0 -33 -27 -45z" />
    <glyph glyph-name="uniFBAF" unicode="&#x6d2;" horiz-adv-x="660" arabic-form="final" 
d="M676 72v-56q0 -16 -16 -16q-130 0 -239 6t-140 6q-104 0 -155 -37t-51 -83q0 -26 72.5 -48.5t177.5 -22.5l301 5q29 -12 29 -41t-27 -41q-146 -12 -303 -12q-320 0 -320 134q0 101 88 167.5t199 66.5q51 0 157 -6t211 -6q16 -2 16 -16z" />
    <glyph glyph-name="uniFBB0" unicode="&#x6d3;" horiz-adv-x="1079" arabic-form="isolated" 
d="M1012 22q-299 -26 -515 -26q-117 0 -194.5 6t-137.5 22.5t-87.5 46.5t-27.5 77q0 42 21 74t54 54.5t67.5 42t68 46t49.5 56.5q17 34 25 47t19.5 22.5t25.5 9.5q48 0 90.5 -74t42.5 -129q0 -63 -78 -63q0 46 -23 102t-50 56q-9 0 -15.5 -12t-13.5 -29.5t-34.5 -44
t-72.5 -50.5q-35 -18 -52.5 -28.5t-35.5 -29.5t-18 -38q0 -71 418 -71q145 0 472 19q29 -12 29 -41q0 -33 -27 -45zM128 532q-27 24 -27 54q0 32 33.5 60t63.5 28q43 0 43 -34q0 -15 -7.5 -26.5t-16.5 -11.5q-2 0 -8 2q-5 18 -31 18q-18 0 -30 -6t-12 -15q0 -14 16 -23
t44 -9q20 0 58 10q9 0 15 -7.5t6 -17.5q0 -18 -15 -24q-33 -5 -53.5 -10.5t-49.5 -22t-48 -42.5q-14 10 -14 27q0 15 9.5 29t23.5 21z" />
    <glyph glyph-name="uniFBB1" unicode="&#x6d3;" horiz-adv-x="660" arabic-form="final" 
d="M676 72v-56q0 -16 -16 -16q-130 0 -239 6t-140 6q-104 0 -155 -37t-51 -83q0 -26 72.5 -48.5t177.5 -22.5l301 5q29 -12 29 -41t-27 -41q-146 -12 -303 -12q-320 0 -320 134q0 101 88 167.5t199 66.5q51 0 157 -6t211 -6q16 -2 16 -16zM160 190q-27 24 -27 54
q0 32 33.5 60t63.5 28q43 0 43 -34q0 -15 -7.5 -26.5t-16.5 -11.5q-2 0 -8 2q-5 18 -31 18q-18 0 -30 -6t-12 -15q0 -14 16 -23t44 -9q20 0 58 10q9 0 15 -7.5t6 -17.5q0 -18 -15 -24q-33 -5 -53.5 -10.5t-49.5 -22t-48 -42.5q-14 10 -14 27q0 15 9.5 29t23.5 21z" />
    <glyph glyph-name="uniFBE8" unicode="&#x649;" horiz-adv-x="297" arabic-form="initial" 
d="M-16 16v56q0 16 16 16q70 0 116.5 15.5t63.5 31.5q-8 100 -59 182q-1 5 -1 10q0 18 13 32t32 14q24 0 41.5 -18.5t25.5 -49t11.5 -59.5t3.5 -60q0 -94 -57 -138q-60 -48 -190 -48q-16 0 -16 16z" />
    <glyph glyph-name="uniFBE9" unicode="&#x649;" horiz-adv-x="377" arabic-form="medial" 
d="M393 72v-56q0 -16 -16 -16q-80 0 -123 24.5t-54 56.5h-4q-22 -44 -78.5 -62.5t-117.5 -18.5q-16 0 -16 16v56q0 16 16 16q182 0 187 139q6 14 27 14q24 0 29 -14q-5 -25 -5 -40q0 -99 139 -99q16 0 16 -16z" />
    <glyph glyph-name="uniFBFC" unicode="&#x6cc;" horiz-adv-x="708" arabic-form="isolated" 
d="M616 360q-10 83 -86 83q-62 0 -112 -56t-50 -98q0 -9 3 -16t11 -12.5t15 -9t22.5 -8t25.5 -6.5t31.5 -6.5t33.5 -7.5q79 -18 105 -37t26 -62q0 -105 -111.5 -183t-260.5 -78q-63 0 -108.5 18t-70 50.5t-35.5 70t-11 82.5q0 75 31.5 145.5t55.5 70.5q6 0 10 -5
q-31 -65 -31 -147q0 -91 38.5 -142.5t137.5 -51.5q71 0 140 23.5t108.5 54t39.5 55.5q0 8 -7 13.5t-23 11t-33.5 9.5t-49 12t-57.5 16q-59 18 -79.5 32.5t-20.5 52.5q0 57 37.5 127.5t99.5 122t121 51.5q47 0 74.5 -30.5t27.5 -68.5q0 -27 -11.5 -53.5t-25.5 -26.5
q-7 0 -11 4z" />
    <glyph glyph-name="uniFBFD" unicode="&#x6cc;" horiz-adv-x="650" arabic-form="final" 
d="M666 72v-56q0 -16 -16 -16h-109q67 -28 67 -91q0 -54 -50.5 -105t-135.5 -83.5t-176 -32.5q-117 0 -179 54.5t-62 143.5q0 74 36 146.5t66 72.5q7 0 13 -6q-45 -67 -45 -151q0 -75 49.5 -122t150.5 -47q74 0 137.5 27t93 57t29.5 49t-46.5 48.5t-99.5 40.5q-14 14 -14 38
q0 39 34 49h241q16 0 16 -16z" />
    <glyph glyph-name="uniFBFE" unicode="&#x6cc;" horiz-adv-x="297" arabic-form="initial" 
d="M-16 16v56q0 16 16 16q70 0 116.5 15.5t63.5 31.5q-8 100 -59 182q-1 5 -1 10q0 18 13 32t32 14q24 0 41.5 -18.5t25.5 -49t11.5 -59.5t3.5 -60q0 -94 -57 -138q-60 -48 -190 -48q-16 0 -16 16zM222 -217q-50 18 -59 61q9 46 59 62q49 -16 59 -62q-10 -43 -59 -61z
M75 -217q-48 18 -58 61q10 46 58 62q51 -17 60 -62q-9 -43 -60 -61z" />
    <glyph glyph-name="uniFBFF" unicode="&#x6cc;" horiz-adv-x="377" arabic-form="medial" 
d="M393 72v-56q0 -16 -16 -16q-80 0 -123 24.5t-54 56.5h-4q-22 -44 -78.5 -62.5t-117.5 -18.5q-16 0 -16 16v56q0 16 16 16q182 0 187 139q6 14 27 14q24 0 29 -14q-5 -25 -5 -40q0 -99 139 -99q16 0 16 -16zM265 -217q-50 18 -59 61q9 46 59 62q49 -16 59 -62
q-10 -43 -59 -61zM118 -217q-48 18 -58 61q10 46 58 62q51 -17 60 -62q-9 -43 -60 -61z" />
    <glyph glyph-name="uniFDF2" unicode="&#xfdf2;" horiz-adv-x="1199" arabic-form="isolated" 
d="M444 0q-98 0 -134 111q-56 -58 -139 -58q-64 0 -97.5 37t-33.5 90q0 18 3.5 34t14 30l18 24t27.5 22t30.5 18.5t38 18.5t39 16.5t44.5 17.5l-7 57q1 20 14 31.5t31 11.5q28 0 40 -26q3 -25 4.5 -42t2 -26.5t6 -43.5t15.5 -94q5 -27 7.5 -39.5t10 -36t16 -35t23.5 -21
t34 -9.5q31 0 58.5 19.5t35.5 57.5q-46 203 -58 302q0 22 13 35t33 13q29 0 42 -31q28 -241 52 -321q11 -36 30 -55.5t60 -19.5q35 0 59.5 20.5t24.5 46.5q-12 71 -23.5 137.5t-16.5 96t-9.5 57.5t-6 42t-1.5 29q0 85 51 103q32 -2 52 -37t24 -69l4 -34q-11 -26 -47 -34
q9 -66 21.5 -128.5t19 -97.5t6.5 -58q0 -69 -44.5 -115.5t-116.5 -46.5q-96 0 -140 88q-14 -37 -48.5 -62.5t-82.5 -25.5zM1130 213q0 -50 -8 -90t-19.5 -63t-25.5 -38.5t-24.5 -21t-18.5 -5.5t-11 5q28 73 28 180q0 65 -10 146t-27 186t-23 148q0 25 13 39t32 14
q31 0 43 -33q2 -22 26.5 -205t24.5 -262zM118 199q0 -28 21 -44t54 -16q48 0 99 34q-5 16 -8 33l-17 85q-9 -3 -27.5 -8t-26 -7.5t-22.5 -7t-21.5 -8t-17 -8.5t-15 -10t-10 -12t-7.5 -14.5t-2 -16.5zM513 837q0 -30 -11.5 -50.5t-22.5 -26.5t-18 -6q-3 0 -3 2q9 25 9 70
q0 20 -3 43t-8 51.5t-7 45.5q0 11 7.5 17.5t17.5 6.5q17 0 24 -18q15 -120 15 -135zM444 544q-57 0 -57 93q0 60 49 60q-3 -21 -3 -41q0 -55 24 -55q14 0 21.5 15.5t7.5 36.5q0 19 -5 39q3 20 23 20q12 0 21 -9q4 -68 36 -68q14 0 24 10q-2 41 -17 74q-1 2 -1 8q1 8 8 14.5
t17 6.5q19 0 28.5 -21.5t9.5 -46.5q0 -38 -20 -70t-52 -32q-34 0 -47 34q-4 -31 -24 -49.5t-43 -18.5z" />
    <glyph glyph-name="uniFE80" unicode="&#x621;" horiz-adv-x="373" arabic-form="isolated" 
d="M92 87q-17 0 -17 25q0 40 37 73q-37 30 -37 68q0 45 44.5 84.5t85.5 39.5q28 0 44 -13t16 -35q0 -15 -12 -30t-24 -15q-5 0 -9 3q-4 13 -18.5 19t-26.5 6q-26 0 -42 -9t-16 -21q0 -19 25.5 -30.5t64.5 -11.5q37 0 76 12q12 -2 19.5 -13t7.5 -24q0 -22 -19 -31
q-49 -12 -75.5 -19.5t-64 -28.5t-59.5 -49z" />
    <glyph glyph-name="uniFE81" unicode="&#x622;" horiz-adv-x="289" arabic-form="isolated" 
d="M113 0q28 73 28 185q0 62 -10 142t-27 186t-23 149q0 25 13 38t32 13q31 0 43 -33q2 -19 26.5 -201.5t24.5 -281.5q0 -63 -18 -111.5t-39.5 -69.5t-38.5 -21q-8 0 -11 5zM22 763q-1 -1 -3 -1q-11 0 -11 36q0 29 17 44t44 17l61 5q44 4 71 14t47 38q11 0 11 -20
q0 -79 -118 -86l-65 -5q-43 -3 -54 -42z" />
    <glyph glyph-name="uniFE82" unicode="&#x622;" horiz-adv-x="339" arabic-form="final" 
d="M354 72v-56q0 -16 -16 -16q-51 0 -90.5 16.5t-62.5 45t-35.5 56t-19.5 59.5q-20 91 -42.5 250t-28.5 237q0 22 13 35t33 13q29 0 42 -31q1 -14 9.5 -112t12.5 -136t14 -109t21 -123q13 -61 40 -87t94 -26q16 0 16 -16zM14 763q-1 -1 -3 -1q-11 0 -11 36q0 29 17 44t44 17
l61 5q44 4 71 14t47 38q11 0 11 -20q0 -79 -118 -86l-65 -5q-43 -3 -54 -42z" />
    <glyph glyph-name="uniFE83" unicode="&#x623;" horiz-adv-x="289" arabic-form="isolated" 
d="M113 0q28 73 28 185q0 62 -10 142t-27 186t-23 149q0 25 13 38t32 13q31 0 43 -33q2 -19 26.5 -201.5t24.5 -281.5q0 -63 -18 -111.5t-39.5 -69.5t-38.5 -21q-8 0 -11 5zM55 797q-27 24 -27 54q0 32 33.5 60t63.5 28q43 0 43 -34q0 -15 -7.5 -26.5t-16.5 -11.5q-2 0 -8 2
q-5 18 -31 18q-18 0 -30 -6t-12 -15q0 -14 16 -23t44 -9q20 0 58 10q9 0 15 -7.5t6 -17.5q0 -18 -15 -24q-33 -5 -53.5 -10.5t-49.5 -22t-48 -42.5q-14 10 -14 27q0 33 33 50z" />
    <glyph glyph-name="uniFE84" unicode="&#x623;" horiz-adv-x="352" arabic-form="final" 
d="M367 72v-56q0 -16 -16 -16q-51 0 -90.5 16.5t-62.5 45t-35.5 56t-19.5 59.5q-20 91 -42.5 250t-28.5 237q0 22 13 35t33 13q29 0 42 -31q1 -14 9.5 -112t12.5 -136t14 -109t21 -123q13 -61 40 -87t94 -26q16 0 16 -16zM58 809q-27 24 -27 54q0 32 33.5 60t63.5 28
q43 0 43 -34q0 -15 -7.5 -26.5t-16.5 -11.5q-2 0 -8 2q-5 18 -31 18q-18 0 -30 -6t-12 -15q0 -14 16 -23t44 -9q20 0 58 10q9 0 15 -7.5t6 -17.5q0 -18 -15 -24q-33 -5 -53.5 -10.5t-49.5 -22t-48 -42.5q-14 10 -14 27q0 33 33 50z" />
    <glyph glyph-name="uniFE85" unicode="&#x624;" horiz-adv-x="421" arabic-form="isolated" 
d="M315 87q-20 -21 -53 -37.5t-71 -16.5q-48 0 -82 27t-34 83q0 77 48 133t111 56q47 0 80.5 -37t47.5 -90t14 -115q0 -109 -79.5 -199t-166.5 -90q-57 0 -103.5 35.5t-46.5 71.5q0 10 8 15l6 -4q6 -4 14.5 -8t20.5 -8.5t30.5 -7.5t38.5 -3q73 0 140 60.5t77 134.5zM315 135
q-9 48 -41.5 78.5t-79.5 30.5q-23 0 -39.5 -15t-16.5 -45q0 -33 28 -49.5t62 -16.5q53 0 87 17zM76 408q-27 24 -27 54q0 32 33.5 60t63.5 28q43 0 43 -34q0 -15 -7.5 -26.5t-16.5 -11.5q-2 0 -8 2q-5 18 -31 18q-18 0 -30 -6t-12 -15q0 -14 16 -23t44 -9q20 0 58 10
q9 0 15 -7.5t6 -17.5q0 -18 -15 -24q-33 -5 -53.5 -10.5t-49.5 -22t-48 -42.5q-14 10 -14 27q0 15 9.5 29t23.5 21z" />
    <glyph glyph-name="uniFE86" unicode="&#x624;" horiz-adv-x="430" arabic-form="final" 
d="M430 0h-62q-23 -98 -94 -164t-145 -66q-56 0 -102.5 36t-46.5 70q0 11 8 16l5 -3q5 -3 10.5 -6t15 -7t20 -7.5t24.5 -5.5t28 -2q64 0 121.5 40t85.5 99q-118 2 -170.5 29t-52.5 86q0 73 48 129.5t110 56.5q45 0 78 -34.5t48 -81.5t17 -98l54 1q16 0 16 -16v-56
q0 -16 -16 -16zM316 87q-3 52 -36.5 89t-79.5 37q-28 0 -45 -14.5t-17 -42.5q0 -38 38.5 -52.5t139.5 -16.5zM76 376q-27 24 -27 54q0 32 33.5 60t63.5 28q43 0 43 -34q0 -15 -7.5 -26.5t-16.5 -11.5q-2 0 -8 2q-5 18 -31 18q-18 0 -30 -6t-12 -15q0 -14 16 -23t44 -9
q20 0 58 10q9 0 15 -7.5t6 -17.5q0 -18 -15 -24q-33 -5 -53.5 -10.5t-49.5 -22t-48 -42.5q-14 10 -14 27q0 15 9.5 29t23.5 21z" />
    <glyph glyph-name="uniFE87" unicode="&#x625;" horiz-adv-x="241" arabic-form="isolated" 
d="M65 0q28 73 28 185q0 62 -10 142t-27 186t-23 149q0 25 13 38t32 13q31 0 43 -33q2 -19 26.5 -201.5t24.5 -281.5q0 -63 -18 -111.5t-39.5 -69.5t-38.5 -21q-8 0 -11 5zM73 -199q-27 24 -27 54q0 32 33.5 60t63.5 28q43 0 43 -34q0 -15 -7.5 -26.5t-16.5 -11.5q-2 0 -8 2
q-5 18 -31 18q-18 0 -30 -6t-12 -15q0 -14 16 -23t44 -9q20 0 58 10q9 0 15 -7.5t6 -17.5q0 -18 -15 -24q-33 -5 -53.5 -10.5t-49.5 -22t-48 -42.5q-14 10 -14 27q0 33 33 50z" />
    <glyph glyph-name="uniFE88" unicode="&#x625;" horiz-adv-x="318" arabic-form="final" 
d="M333 72v-56q0 -16 -16 -16q-51 0 -90.5 16.5t-62.5 45t-35.5 56t-19.5 59.5q-20 91 -42.5 250t-28.5 237q0 22 13 35t33 13q29 0 42 -31q1 -14 9.5 -112t12.5 -136t14 -109t21 -123q13 -61 40 -87t94 -26q16 0 16 -16zM166 -195q-27 24 -27 54q0 32 33.5 60t63.5 28
q43 0 43 -34q0 -15 -7.5 -26.5t-16.5 -11.5q-2 0 -8 2q-5 18 -31 18q-18 0 -30 -6t-12 -15q0 -14 16 -23t44 -9q20 0 58 10q9 0 15 -7.5t6 -17.5q0 -18 -15 -24q-33 -5 -53.5 -10.5t-49.5 -22t-48 -42.5q-14 10 -14 27q0 33 33 50z" />
    <glyph glyph-name="uniFE89" unicode="&#x626;" horiz-adv-x="708" arabic-form="isolated" 
d="M616 360q-10 83 -86 83q-62 0 -112 -56t-50 -98q0 -9 3 -16t11 -12.5t15 -9t22.5 -8t25.5 -6.5t31.5 -6.5t33.5 -7.5q79 -18 105 -37t26 -62q0 -105 -111.5 -183t-260.5 -78q-63 0 -108.5 18t-70 50.5t-35.5 70t-11 82.5q0 75 31.5 145.5t55.5 70.5q6 0 10 -5
q-31 -65 -31 -147q0 -91 38.5 -142.5t137.5 -51.5q71 0 140 23.5t108.5 54t39.5 55.5q0 8 -7 13.5t-23 11t-33.5 9.5t-49 12t-57.5 16q-59 18 -79.5 32.5t-20.5 52.5q0 57 37.5 127.5t99.5 122t121 51.5q47 0 74.5 -30.5t27.5 -68.5q0 -27 -11.5 -53.5t-25.5 -26.5
q-7 0 -11 4zM76 476q-27 24 -27 54q0 32 33.5 60t63.5 28q43 0 43 -34q0 -15 -7.5 -26.5t-16.5 -11.5q-2 0 -8 2q-5 18 -31 18q-18 0 -30 -6t-12 -15q0 -14 16 -23t44 -9q20 0 58 10q9 0 15 -7.5t6 -17.5q0 -18 -15 -24q-33 -5 -53.5 -10.5t-49.5 -22t-48 -42.5
q-14 10 -14 27q0 15 9.5 29t23.5 21z" />
    <glyph glyph-name="uniFE8A" unicode="&#x626;" horiz-adv-x="650" arabic-form="final" 
d="M666 72v-56q0 -16 -16 -16h-109q67 -28 67 -91q0 -54 -50.5 -105t-135.5 -83.5t-176 -32.5q-117 0 -179 54.5t-62 143.5q0 74 36 146.5t66 72.5q7 0 13 -6q-45 -67 -45 -151q0 -75 49.5 -122t150.5 -47q74 0 137.5 27t93 57t29.5 49t-46.5 48.5t-99.5 40.5q-14 14 -14 38
q0 39 34 49h241q16 0 16 -16zM212 266q-27 24 -27 54q0 32 33.5 60t63.5 28q43 0 43 -34q0 -15 -7.5 -26.5t-16.5 -11.5q-2 0 -8 2q-5 18 -31 18q-18 0 -30 -6t-12 -15q0 -14 16 -23t44 -9q20 0 58 10q9 0 15 -7.5t6 -17.5q0 -18 -15 -24q-33 -5 -53.5 -10.5t-49.5 -22
t-48 -42.5q-14 10 -14 27q0 15 9.5 29t23.5 21z" />
    <glyph glyph-name="uniFE8B" unicode="&#x626;" horiz-adv-x="297" arabic-form="initial" 
d="M-16 16v56q0 16 16 16q70 0 116.5 15.5t63.5 31.5q-8 100 -59 182q-1 5 -1 10q0 18 13 32t32 14q24 0 41.5 -18.5t25.5 -49t11.5 -59.5t3.5 -60q0 -94 -57 -138q-60 -48 -190 -48q-16 0 -16 16zM76 486q-27 24 -27 54q0 32 33.5 60t63.5 28q43 0 43 -34q0 -15 -7.5 -26.5
t-16.5 -11.5q-2 0 -8 2q-5 18 -31 18q-18 0 -30 -6t-12 -15q0 -14 16 -23t44 -9q20 0 58 10q9 0 15 -7.5t6 -17.5q0 -18 -15 -24q-33 -5 -53.5 -10.5t-49.5 -22t-48 -42.5q-14 10 -14 27q0 15 9.5 29t23.5 21z" />
    <glyph glyph-name="uniFE8C" unicode="&#x626;" horiz-adv-x="377" arabic-form="medial" 
d="M393 72v-56q0 -16 -16 -16q-80 0 -123 24.5t-54 56.5h-4q-22 -44 -78.5 -62.5t-117.5 -18.5q-16 0 -16 16v56q0 16 16 16q182 0 187 139q6 14 27 14q24 0 29 -14q-5 -25 -5 -40q0 -99 139 -99q16 0 16 -16zM139 375q-27 24 -27 54q0 32 33.5 60t63.5 28q43 0 43 -34
q0 -15 -7.5 -26.5t-16.5 -11.5q-2 0 -8 2q-5 18 -31 18q-18 0 -30 -6t-12 -15q0 -14 16 -23t44 -9q20 0 58 10q9 0 15 -7.5t6 -17.5q0 -18 -15 -24q-33 -5 -53.5 -10.5t-49.5 -22t-48 -42.5q-14 10 -14 27q0 33 33 50z" />
    <glyph glyph-name="uniFE8D" unicode="&#x627;" horiz-adv-x="241" arabic-form="isolated" 
d="M65 0q28 73 28 185q0 62 -10 142t-27 186t-23 149q0 25 13 38t32 13q31 0 43 -33q2 -19 26.5 -201.5t24.5 -281.5q0 -63 -18 -111.5t-39.5 -69.5t-38.5 -21q-8 0 -11 5z" />
    <glyph glyph-name="uniFE8E" unicode="&#x627;" horiz-adv-x="318" arabic-form="final" 
d="M333 72v-56q0 -16 -16 -16q-51 0 -90.5 16.5t-62.5 45t-35.5 56t-19.5 59.5q-20 91 -42.5 250t-28.5 237q0 22 13 35t33 13q29 0 42 -31q1 -14 9.5 -112t12.5 -136t14 -109t21 -123q13 -61 40 -87t94 -26q16 0 16 -16z" />
    <glyph glyph-name="uniFE8F" unicode="&#x628;" horiz-adv-x="818" arabic-form="isolated" 
d="M650 320q-1 3 -1 10q0 19 12.5 32.5t32.5 13.5q27 0 44.5 -28t22.5 -60t5 -67q0 -99 -57 -143q-54 -43 -153.5 -70.5t-201.5 -27.5q-150 0 -224.5 60t-74.5 165q0 66 24.5 114.5t50.5 48.5q6 0 11 -3q-27 -55 -27 -107q0 -83 66 -131.5t207 -48.5q55 0 108 8t88 19
t62.5 22.5t40.5 19.5l13 8q0 80 -49 165zM381 -224q-52 18 -62 65q10 47 62 65q53 -18 63 -65q-10 -47 -63 -65z" />
    <glyph glyph-name="uniFE90" unicode="&#x628;" horiz-adv-x="867" arabic-form="final" 
d="M341 -20q-140 0 -213 59t-73 163q0 68 24.5 120t51.5 52q7 0 11 -3q-27 -65 -27 -120q0 -79 66.5 -126t191.5 -47q61 0 118.5 10t95.5 25t67.5 29.5t43.5 24.5l13 10l10 51q5 12 25 12q24 0 31 -12q-11 -27 -11 -55q0 -85 101 -85q16 0 16 -16v-56q0 -16 -16 -16
q-138 0 -152 96h-4q-64 -51 -165.5 -83.5t-204.5 -32.5zM356 -224q-52 18 -62 65q10 47 62 65q53 -18 63 -65q-10 -47 -63 -65z" />
    <glyph glyph-name="uniFE91" unicode="&#x628;" horiz-adv-x="297" arabic-form="initial" 
d="M-16 16v56q0 16 16 16q70 0 116.5 15.5t63.5 31.5q-8 100 -59 182q-1 5 -1 10q0 18 13 32t32 14q24 0 41.5 -18.5t25.5 -49t11.5 -59.5t3.5 -60q0 -94 -57 -138q-60 -48 -190 -48q-16 0 -16 16zM174 -224q-52 18 -62 65q10 47 62 65q53 -18 63 -65q-10 -47 -63 -65z" />
    <glyph glyph-name="uniFE92" unicode="&#x628;" horiz-adv-x="377" arabic-form="medial" 
d="M393 72v-56q0 -16 -16 -16q-80 0 -123 24.5t-54 56.5h-4q-22 -44 -78.5 -62.5t-117.5 -18.5q-16 0 -16 16v56q0 16 16 16q182 0 187 139q6 14 27 14q24 0 29 -14q-5 -25 -5 -40q0 -99 139 -99q16 0 16 -16zM176 -224q-52 18 -62 65q10 47 62 65q53 -18 63 -65
q-10 -47 -63 -65z" />
    <glyph glyph-name="uniFE93" unicode="&#x629;" horiz-adv-x="398" arabic-form="isolated" 
d="M121 326l-32 5q-6 13 -6 27q0 24 18.5 40.5t48.5 16.5q76 0 141 -63t65 -161q0 -85 -47.5 -139t-132.5 -54q-69 0 -105 38t-36 96q0 42 10.5 78.5t27.5 60.5t27.5 35.5t20.5 19.5zM170 311q-85 -67 -85 -144q0 -37 29 -58t77 -21q42 0 80.5 21t38.5 54q0 49 -41 87.5
t-99 60.5zM264 500q-50 18 -59 61q9 46 59 62q49 -16 59 -62q-10 -43 -59 -61zM117 500q-48 18 -58 61q10 46 58 62q51 -17 60 -62q-9 -43 -60 -61z" />
    <glyph glyph-name="uniFE94" unicode="&#x629;" horiz-adv-x="460" arabic-form="final" 
d="M476 72v-56q0 -16 -16 -16q-60 0 -94.5 28t-55.5 83q-58 -58 -136 -58q-67 0 -100.5 37.5t-33.5 86.5q0 37 12.5 63t41.5 46t59.5 34t82.5 34q13 4 19 7q-6 43 -7 57q1 20 14 31.5t31 11.5q28 0 40 -26q20 -169 28 -206q6 -29 11 -47t16 -43t29 -38t43 -13q16 0 16 -16z
M291 173q-1 3 -3.5 14.5t-3.5 18.5q-12 55 -17 85q-10 -3 -27.5 -8t-26.5 -7.5t-23 -7t-21 -8t-17 -9t-15 -10.5t-10 -11.5t-7 -14.5t-2 -18q0 -26 20.5 -42t52.5 -16q51 0 100 34zM360 553q-50 18 -59 61q9 46 59 62q49 -16 59 -62q-10 -43 -59 -61zM213 553q-48 18 -58 61
q10 46 58 62q51 -17 60 -62q-9 -43 -60 -61z" />
    <glyph glyph-name="uniFE95" unicode="&#x62a;" horiz-adv-x="818" arabic-form="isolated" 
d="M650 320q-1 3 -1 10q0 19 12.5 32.5t32.5 13.5q27 0 44.5 -28t22.5 -60t5 -67q0 -99 -57 -143q-54 -43 -153.5 -70.5t-201.5 -27.5q-150 0 -224.5 60t-74.5 165q0 66 24.5 114.5t50.5 48.5q6 0 11 -3q-27 -55 -27 -107q0 -83 66 -131.5t207 -48.5q55 0 108 8t88 19
t62.5 22.5t40.5 19.5l13 8q0 80 -49 165zM468 468q-50 18 -59 61q9 46 59 62q49 -16 59 -62q-10 -43 -59 -61zM321 468q-48 18 -58 61q10 46 58 62q51 -17 60 -62q-9 -43 -60 -61z" />
    <glyph glyph-name="uniFE96" unicode="&#x62a;" horiz-adv-x="867" arabic-form="final" 
d="M341 -20q-140 0 -213 59t-73 163q0 68 24.5 120t51.5 52q7 0 11 -3q-27 -65 -27 -120q0 -79 66.5 -126t191.5 -47q61 0 118.5 10t95.5 25t67.5 29.5t43.5 24.5l13 10l10 51q5 12 25 12q24 0 31 -12q-11 -27 -11 -55q0 -85 101 -85q16 0 16 -16v-56q0 -16 -16 -16
q-138 0 -152 96h-4q-64 -51 -165.5 -83.5t-204.5 -32.5zM498 468q-50 18 -59 61q9 46 59 62q49 -16 59 -62q-10 -43 -59 -61zM351 468q-48 18 -58 61q10 46 58 62q51 -17 60 -62q-9 -43 -60 -61z" />
    <glyph glyph-name="uniFE97" unicode="&#x62a;" horiz-adv-x="297" arabic-form="initial" 
d="M-16 16v56q0 16 16 16q70 0 116.5 15.5t63.5 31.5q-8 100 -59 182q-1 5 -1 10q0 18 13 32t32 14q24 0 41.5 -18.5t25.5 -49t11.5 -59.5t3.5 -60q0 -94 -57 -138q-60 -48 -190 -48q-16 0 -16 16zM204 468q-50 18 -59 61q9 46 59 62q49 -16 59 -62q-10 -43 -59 -61zM57 468
q-48 18 -58 61q10 46 58 62q51 -17 60 -62q-9 -43 -60 -61z" />
    <glyph glyph-name="uniFE98" unicode="&#x62a;" horiz-adv-x="377" arabic-form="medial" 
d="M393 72v-56q0 -16 -16 -16q-80 0 -123 24.5t-54 56.5h-4q-22 -44 -78.5 -62.5t-117.5 -18.5q-16 0 -16 16v56q0 16 16 16q182 0 187 139q6 14 27 14q24 0 29 -14q-5 -25 -5 -40q0 -99 139 -99q16 0 16 -16zM284 327q-50 18 -59 61q9 46 59 62q49 -16 59 -62
q-10 -43 -59 -61zM137 327q-48 18 -58 61q10 46 58 62q51 -17 60 -62q-9 -43 -60 -61z" />
    <glyph glyph-name="uniFE99" unicode="&#x62b;" horiz-adv-x="818" arabic-form="isolated" 
d="M650 320q-1 3 -1 10q0 19 12.5 32.5t32.5 13.5q27 0 44.5 -28t22.5 -60t5 -67q0 -99 -57 -143q-54 -43 -153.5 -70.5t-201.5 -27.5q-150 0 -224.5 60t-74.5 165q0 66 24.5 114.5t50.5 48.5q6 0 11 -3q-27 -55 -27 -107q0 -83 66 -131.5t207 -48.5q55 0 108 8t88 19
t62.5 22.5t40.5 19.5l13 8q0 80 -49 165zM468 468q-50 18 -59 61q9 46 59 62q49 -16 59 -62q-10 -43 -59 -61zM321 468q-48 18 -58 61q10 46 58 62q51 -17 60 -62q-9 -43 -60 -61zM394 586q-48 18 -58 62q10 45 58 62q50 -18 60 -62q-10 -44 -60 -62z" />
    <glyph glyph-name="uniFE9A" unicode="&#x62b;" horiz-adv-x="867" arabic-form="final" 
d="M341 -20q-140 0 -213 59t-73 163q0 68 24.5 120t51.5 52q7 0 11 -3q-27 -65 -27 -120q0 -79 66.5 -126t191.5 -47q61 0 118.5 10t95.5 25t67.5 29.5t43.5 24.5l13 10l10 51q5 12 25 12q24 0 31 -12q-11 -27 -11 -55q0 -85 101 -85q16 0 16 -16v-56q0 -16 -16 -16
q-138 0 -152 96h-4q-64 -51 -165.5 -83.5t-204.5 -32.5zM498 468q-50 18 -59 61q9 46 59 62q49 -16 59 -62q-10 -43 -59 -61zM351 468q-48 18 -58 61q10 46 58 62q51 -17 60 -62q-9 -43 -60 -61zM424 586q-48 18 -58 62q10 45 58 62q50 -18 60 -62q-10 -44 -60 -62z" />
    <glyph glyph-name="uniFE9B" unicode="&#x62b;" horiz-adv-x="297" arabic-form="initial" 
d="M-16 16v56q0 16 16 16q70 0 116.5 15.5t63.5 31.5q-8 100 -59 182q-1 5 -1 10q0 18 13 32t32 14q24 0 41.5 -18.5t25.5 -49t11.5 -59.5t3.5 -60q0 -94 -57 -138q-60 -48 -190 -48q-16 0 -16 16zM204 468q-50 18 -59 61q9 46 59 62q49 -16 59 -62q-10 -43 -59 -61zM57 468
q-48 18 -58 61q10 46 58 62q51 -17 60 -62q-9 -43 -60 -61zM130 586q-48 18 -58 62q10 45 58 62q50 -18 60 -62q-10 -44 -60 -62z" />
    <glyph glyph-name="uniFE9C" unicode="&#x62b;" horiz-adv-x="377" arabic-form="medial" 
d="M393 72v-56q0 -16 -16 -16q-80 0 -123 24.5t-54 56.5h-4q-22 -44 -78.5 -62.5t-117.5 -18.5q-16 0 -16 16v56q0 16 16 16q182 0 187 139q6 14 27 14q24 0 29 -14q-5 -25 -5 -40q0 -99 139 -99q16 0 16 -16zM284 327q-50 18 -59 61q9 46 59 62q49 -16 59 -62
q-10 -43 -59 -61zM137 327q-48 18 -58 61q10 46 58 62q51 -17 60 -62q-9 -43 -60 -61zM210 445q-48 18 -58 62q10 45 58 62q50 -18 60 -62q-10 -44 -60 -62z" />
    <glyph glyph-name="uniFE9D" unicode="&#x62c;" horiz-adv-x="684" arabic-form="isolated" 
d="M562 -256q10 -4 10 -15q0 -37 -67 -80t-161 -43q-117 0 -198 71t-81 190q0 66 28 123t68 94t90 66t87 42.5t66 20.5q-110 66 -193 66q-38 0 -66 -18t-28 -56q0 -10 2 -22q-2 -2 -7 -2q-15 0 -30.5 22.5t-15.5 57.5q0 50 35 80.5t101 30.5q50 0 106 -19.5t98 -43.5
t96 -43.5t100 -19.5q21 -13 21 -42q0 -37 -37 -48q-28 2 -45 2q-64 0 -133.5 -17.5t-132 -49.5t-103 -85.5t-40.5 -118.5q0 -62 38 -105t90 -60.5t112 -17.5q43 0 90.5 10t73.5 20zM367 -141q-52 18 -62 65q10 47 62 65q53 -18 63 -65q-10 -47 -63 -65z" />
    <glyph glyph-name="uniFE9E" unicode="&#x62c;" horiz-adv-x="621" arabic-form="final" 
d="M637 72v-56q0 -16 -16 -16h-5q-65 0 -110.5 23.5t-45.5 79.5q0 24 7 49q-61 -9 -118.5 -29.5t-107 -52.5t-79.5 -79.5t-30 -103.5q0 -62 38 -105t90 -60.5t112 -17.5q43 0 90.5 10t73.5 20l26 10q10 -4 10 -15q0 -37 -67 -80t-161 -43q-117 0 -198 71t-81 190
q0 66 28 123t68 94t90 66t87 42.5t66 20.5q-110 66 -193 66q-38 0 -66 -18t-28 -56q0 -10 2 -22q-2 -2 -7 -2q-15 0 -30.5 22.5t-15.5 57.5q0 50 35 80.5t101 30.5q50 0 106 -19.5t98 -43.5t96 -43.5t100 -19.5q21 -13 21 -42q0 -37 -37 -48q-14 2 -45 2q-32 0 -59 -4
q5 -22 17 -35.5t32 -20t39 -8.5t46 -2h5q16 0 16 -16zM349 -154q-52 18 -62 65q10 47 62 65q53 -18 63 -65q-10 -47 -63 -65z" />
    <glyph glyph-name="uniFE9F" unicode="&#x62c;" horiz-adv-x="691" arabic-form="initial" 
d="M419 203v4q-128 72 -201 72q-41 0 -67.5 -18t-26.5 -56q0 -14 2 -22q-2 -2 -6 -2q-15 0 -31 22t-16 57q0 52 37 82t100 30q51 0 107 -20t97 -44t94.5 -44t100.5 -20q21 -13 21 -42q0 -37 -37 -48q-30 2 -41 2q-53 0 -100.5 -16.5t-88 -39.5t-86.5 -46t-117.5 -39.5
t-159.5 -16.5q-16 0 -16 16v56q0 16 16 16q86 0 160 15t113.5 32.5t83 40t62.5 29.5zM266 -224q-52 18 -62 65q10 47 62 65q53 -18 63 -65q-10 -47 -63 -65z" />
    <glyph glyph-name="uniFEA0" unicode="&#x62c;" horiz-adv-x="628" arabic-form="medial" 
d="M644 72v-56q0 -16 -16 -16h-10q-63 0 -107.5 23.5t-44.5 75.5q0 25 6 47q-40 -11 -92 -37.5t-93.5 -50t-117.5 -42t-169 -18.5q-16 0 -16 16v56q0 16 16 16q86 0 160 15t113.5 32.5t83 40t62.5 29.5v4q-126 71 -201 71q-41 0 -67.5 -18t-26.5 -56q0 -14 2 -22
q-2 -2 -6 -2q-15 0 -31 22t-16 57q0 52 37 82t100 30q51 0 107 -20t97 -43.5t94.5 -43.5t100.5 -20q21 -13 21 -42q0 -37 -37 -48q-30 2 -41 2q-24 0 -62 -6q7 -27 29.5 -41.5t45.5 -17.5t58 -3h5q16 0 16 -16zM265 -224q-52 18 -62 65q10 47 62 65q53 -18 63 -65
q-10 -47 -63 -65z" />
    <glyph glyph-name="uniFEA1" unicode="&#x62d;" horiz-adv-x="684" arabic-form="isolated" 
d="M562 -256q10 -4 10 -15q0 -37 -67 -80t-161 -43q-117 0 -198 71t-81 190q0 66 28 123t68 94t90 66t87 42.5t66 20.5q-110 66 -193 66q-38 0 -66 -18t-28 -56q0 -10 2 -22q-2 -2 -7 -2q-15 0 -30.5 22.5t-15.5 57.5q0 50 35 80.5t101 30.5q50 0 106 -19.5t98 -43.5
t96 -43.5t100 -19.5q21 -13 21 -42q0 -37 -37 -48q-28 2 -45 2q-64 0 -133.5 -17.5t-132 -49.5t-103 -85.5t-40.5 -118.5q0 -62 38 -105t90 -60.5t112 -17.5q43 0 90.5 10t73.5 20z" />
    <glyph glyph-name="uniFEA2" unicode="&#x62d;" horiz-adv-x="621" arabic-form="final" 
d="M637 72v-56q0 -16 -16 -16h-5q-65 0 -110.5 23.5t-45.5 79.5q0 24 7 49q-61 -9 -118.5 -29.5t-107 -52.5t-79.5 -79.5t-30 -103.5q0 -62 38 -105t90 -60.5t112 -17.5q43 0 90.5 10t73.5 20l26 10q10 -4 10 -15q0 -37 -67 -80t-161 -43q-117 0 -198 71t-81 190
q0 66 28 123t68 94t90 66t87 42.5t66 20.5q-110 66 -193 66q-38 0 -66 -18t-28 -56q0 -10 2 -22q-2 -2 -7 -2q-15 0 -30.5 22.5t-15.5 57.5q0 50 35 80.5t101 30.5q50 0 106 -19.5t98 -43.5t96 -43.5t100 -19.5q21 -13 21 -42q0 -37 -37 -48q-14 2 -45 2q-32 0 -59 -4
q5 -22 17 -35.5t32 -20t39 -8.5t46 -2h5q16 0 16 -16z" />
    <glyph glyph-name="uniFEA3" unicode="&#x62d;" horiz-adv-x="691" arabic-form="initial" 
d="M419 203v4q-128 72 -201 72q-41 0 -67.5 -18t-26.5 -56q0 -14 2 -22q-2 -2 -6 -2q-15 0 -31 22t-16 57q0 52 37 82t100 30q51 0 107 -20t97 -44t94.5 -44t100.5 -20q21 -13 21 -42q0 -37 -37 -48q-30 2 -41 2q-53 0 -100.5 -16.5t-88 -39.5t-86.5 -46t-117.5 -39.5
t-159.5 -16.5q-16 0 -16 16v56q0 16 16 16q86 0 160 15t113.5 32.5t83 40t62.5 29.5z" />
    <glyph glyph-name="uniFEA4" unicode="&#x62d;" horiz-adv-x="628" arabic-form="medial" 
d="M644 72v-56q0 -16 -16 -16h-10q-63 0 -107.5 23.5t-44.5 75.5q0 25 6 47q-40 -11 -92 -37.5t-93.5 -50t-117.5 -42t-169 -18.5q-16 0 -16 16v56q0 16 16 16q86 0 160 15t113.5 32.5t83 40t62.5 29.5v4q-126 71 -201 71q-41 0 -67.5 -18t-26.5 -56q0 -14 2 -22
q-2 -2 -6 -2q-15 0 -31 22t-16 57q0 52 37 82t100 30q51 0 107 -20t97 -43.5t94.5 -43.5t100.5 -20q21 -13 21 -42q0 -37 -37 -48q-30 2 -41 2q-24 0 -62 -6q7 -27 29.5 -41.5t45.5 -17.5t58 -3h5q16 0 16 -16z" />
    <glyph glyph-name="uniFEA5" unicode="&#x62e;" horiz-adv-x="684" arabic-form="isolated" 
d="M562 -256q10 -4 10 -15q0 -37 -67 -80t-161 -43q-117 0 -198 71t-81 190q0 66 28 123t68 94t90 66t87 42.5t66 20.5q-110 66 -193 66q-38 0 -66 -18t-28 -56q0 -10 2 -22q-2 -2 -7 -2q-15 0 -30.5 22.5t-15.5 57.5q0 50 35 80.5t101 30.5q50 0 106 -19.5t98 -43.5
t96 -43.5t100 -19.5q21 -13 21 -42q0 -37 -37 -48q-28 2 -45 2q-64 0 -133.5 -17.5t-132 -49.5t-103 -85.5t-40.5 -118.5q0 -62 38 -105t90 -60.5t112 -17.5q43 0 90.5 10t73.5 20zM298 468q-52 18 -62 65q10 47 62 65q53 -18 63 -65q-10 -47 -63 -65z" />
    <glyph glyph-name="uniFEA6" unicode="&#x62e;" horiz-adv-x="621" arabic-form="final" 
d="M637 72v-56q0 -16 -16 -16h-5q-65 0 -110.5 23.5t-45.5 79.5q0 24 7 49q-61 -9 -118.5 -29.5t-107 -52.5t-79.5 -79.5t-30 -103.5q0 -62 38 -105t90 -60.5t112 -17.5q43 0 90.5 10t73.5 20l26 10q10 -4 10 -15q0 -37 -67 -80t-161 -43q-117 0 -198 71t-81 190
q0 66 28 123t68 94t90 66t87 42.5t66 20.5q-110 66 -193 66q-38 0 -66 -18t-28 -56q0 -10 2 -22q-2 -2 -7 -2q-15 0 -30.5 22.5t-15.5 57.5q0 50 35 80.5t101 30.5q50 0 106 -19.5t98 -43.5t96 -43.5t100 -19.5q21 -13 21 -42q0 -37 -37 -48q-14 2 -45 2q-32 0 -59 -4
q5 -22 17 -35.5t32 -20t39 -8.5t46 -2h5q16 0 16 -16zM298 468q-52 18 -62 65q10 47 62 65q53 -18 63 -65q-10 -47 -63 -65z" />
    <glyph glyph-name="uniFEA7" unicode="&#x62e;" horiz-adv-x="691" arabic-form="initial" 
d="M419 203v4q-128 72 -201 72q-41 0 -67.5 -18t-26.5 -56q0 -14 2 -22q-2 -2 -6 -2q-15 0 -31 22t-16 57q0 52 37 82t100 30q51 0 107 -20t97 -44t94.5 -44t100.5 -20q21 -13 21 -42q0 -37 -37 -48q-30 2 -41 2q-53 0 -100.5 -16.5t-88 -39.5t-86.5 -46t-117.5 -39.5
t-159.5 -16.5q-16 0 -16 16v56q0 16 16 16q86 0 160 15t113.5 32.5t83 40t62.5 29.5zM305 468q-52 18 -62 65q10 47 62 65q53 -18 63 -65q-10 -47 -63 -65z" />
    <glyph glyph-name="uniFEA8" unicode="&#x62e;" horiz-adv-x="628" arabic-form="medial" 
d="M644 72v-56q0 -16 -16 -16h-10q-63 0 -107.5 23.5t-44.5 75.5q0 25 6 47q-40 -11 -92 -37.5t-93.5 -50t-117.5 -42t-169 -18.5q-16 0 -16 16v56q0 16 16 16q86 0 160 15t113.5 32.5t83 40t62.5 29.5v4q-126 71 -201 71q-41 0 -67.5 -18t-26.5 -56q0 -14 2 -22
q-2 -2 -6 -2q-15 0 -31 22t-16 57q0 52 37 82t100 30q51 0 107 -20t97 -43.5t94.5 -43.5t100.5 -20q21 -13 21 -42q0 -37 -37 -48q-30 2 -41 2q-24 0 -62 -6q7 -27 29.5 -41.5t45.5 -17.5t58 -3h5q16 0 16 -16zM304 468q-52 18 -62 65q10 47 62 65q53 -18 63 -65
q-10 -47 -63 -65z" />
    <glyph glyph-name="uniFEA9" unicode="&#x62f;" horiz-adv-x="471" arabic-form="isolated" 
d="M153 87q55 0 110.5 17.5t84.5 37.5q0 39 -37.5 112t-80.5 127q-4 11 -4 23q0 22 14.5 37t35.5 15q19 0 36 -14q46 -59 75 -135.5t29 -138.5q0 -80 -52 -115q-36 -25 -95.5 -41t-109.5 -16q-63 0 -89 27t-26 77q0 37 12 56.5t29 19.5q7 0 11 -3q-3 -9 -3 -25q0 -61 60 -61
z" />
    <glyph glyph-name="uniFEAA" unicode="&#x62f;" horiz-adv-x="536" arabic-form="final" 
d="M552 72v-56q0 -16 -16 -16q-121 0 -178 92q-4 -22 -19 -35q-27 -26 -87 -43.5t-106 -17.5q-102 0 -102 105q0 36 11 55.5t28 19.5q7 0 11 -3q-3 -13 -3 -29q0 -57 67 -57q40 0 89.5 17.5t85.5 39.5q-6 16 -9 33q-48 182 -60 311q0 22 11.5 35t31.5 13q29 0 42 -31
q1 -8 5 -45t5 -46.5t5.5 -40.5t8 -50.5t10 -52t15.5 -69.5q14 -61 43 -87t95 -26q16 0 16 -16z" />
    <glyph glyph-name="uniFEAB" unicode="&#x630;" horiz-adv-x="471" arabic-form="isolated" 
d="M153 87q55 0 110.5 17.5t84.5 37.5q0 39 -37.5 112t-80.5 127q-4 11 -4 23q0 22 14.5 37t35.5 15q19 0 36 -14q46 -59 75 -135.5t29 -138.5q0 -80 -52 -115q-36 -25 -95.5 -41t-109.5 -16q-63 0 -89 27t-26 77q0 37 12 56.5t29 19.5q7 0 11 -3q-3 -9 -3 -25q0 -61 60 -61
zM242 547q-52 18 -62 65q10 47 62 65q53 -18 63 -65q-10 -47 -63 -65z" />
    <glyph glyph-name="uniFEAC" unicode="&#x630;" horiz-adv-x="536" arabic-form="final" 
d="M552 72v-56q0 -16 -16 -16q-121 0 -178 92q-4 -22 -19 -35q-27 -26 -87 -43.5t-106 -17.5q-102 0 -102 105q0 36 11 55.5t28 19.5q7 0 11 -3q-3 -13 -3 -29q0 -57 67 -57q40 0 89.5 17.5t85.5 39.5q-6 16 -9 33q-48 182 -60 311q0 22 11.5 35t31.5 13q29 0 42 -31
q1 -8 5 -45t5 -46.5t5.5 -40.5t8 -50.5t10 -52t15.5 -69.5q14 -61 43 -87t95 -26q16 0 16 -16zM281 627q-52 18 -62 65q10 47 62 65q53 -18 63 -65q-10 -47 -63 -65z" />
    <glyph glyph-name="uniFEAD" unicode="&#x631;" horiz-adv-x="351" arabic-form="isolated" 
d="M174 249q-3 8 -3 17q0 19 14 32t32 13q25 0 39 -22q24 -34 39.5 -84t15.5 -86q0 -56 -26 -118t-76 -109t-109 -47q-45 0 -82.5 33.5t-37.5 66.5q0 17 14 17q9 -13 27.5 -26t36.5 -13q40 0 89 38.5t79 81.5t30 61q0 16 -27.5 63.5t-54.5 81.5z" />
    <glyph glyph-name="uniFEAE" unicode="&#x631;" horiz-adv-x="402" arabic-form="final" 
d="M418 72v-56q0 -16 -16 -16q-74 4 -98 31h-5q-10 -88 -66.5 -167t-132.5 -79q-45 0 -82.5 33.5t-37.5 66.5q0 17 14 17q9 -13 27.5 -26t36.5 -13q54 0 121.5 74t67.5 106q0 16 -26 61.5t-51 76.5q-2 6 -2 14q0 20 14 32.5t32 12.5t30 -12q9 -23 13.5 -33.5t18.5 -34
t28.5 -35.5t40 -23.5t56.5 -13.5q17 0 17 -16z" />
    <glyph glyph-name="uniFEAF" unicode="&#x632;" horiz-adv-x="351" arabic-form="isolated" 
d="M174 249q-3 8 -3 17q0 19 14 32t32 13q25 0 39 -22q24 -34 39.5 -84t15.5 -86q0 -56 -26 -118t-76 -109t-109 -47q-45 0 -82.5 33.5t-37.5 66.5q0 17 14 17q9 -13 27.5 -26t36.5 -13q40 0 89 38.5t79 81.5t30 61q0 16 -27.5 63.5t-54.5 81.5zM123 402q-52 18 -62 65
q10 47 62 65q53 -18 63 -65q-10 -47 -63 -65z" />
    <glyph glyph-name="uniFEB0" unicode="&#x632;" horiz-adv-x="402" arabic-form="final" 
d="M418 72v-56q0 -16 -16 -16q-74 4 -98 31h-5q-10 -88 -66.5 -167t-132.5 -79q-45 0 -82.5 33.5t-37.5 66.5q0 17 14 17q9 -13 27.5 -26t36.5 -13q54 0 121.5 74t67.5 106q0 16 -26 61.5t-51 76.5q-2 6 -2 14q0 20 14 32.5t32 12.5t30 -12q9 -23 13.5 -33.5t18.5 -34
t28.5 -35.5t40 -23.5t56.5 -13.5q17 0 17 -16zM120 327q-52 18 -62 65q10 47 62 65q53 -18 63 -65q-10 -47 -63 -65z" />
    <glyph glyph-name="uniFEB1" unicode="&#x633;" horiz-adv-x="986" arabic-form="isolated" 
d="M666 50h-3q-29 -50 -101 -50q-9 0 -19.5 2t-16.5 4l-5 3q0 -46 -7 -70t-24 -46q-35 -44 -101 -77.5t-147 -33.5q-105 0 -158.5 59t-53.5 154q0 76 29 143t66 67q11 0 16 -4q-42 -75 -42 -155q0 -76 37.5 -124.5t116.5 -48.5q61 0 119.5 29t84.5 82q-6 62 -33.5 129
t-55.5 110q0 26 16 41t36 15q22 0 35 -16q36 -103 59 -139t55 -36q27 0 48 17t32.5 46t18 55t9.5 54q7 12 26 12q21 0 27 -13q-16 -53 -16 -89q0 -82 85 -82q2 0 6.5 0.5t15.5 3t20 6.5t18 12.5t13 19.5q0 72 -51 129q-3 8 -3 16q0 18 12 32.5t30 14.5q23 0 40 -26t24 -60
t7 -68q0 -84 -45 -126t-111 -42q-64 0 -109 50z" />
    <glyph glyph-name="uniFEB2" unicode="&#x633;" horiz-adv-x="1045" arabic-form="final" 
d="M1061 72v-56q0 -16 -16 -16q-124 0 -165 62h-5q-17 -27 -50 -44.5t-66 -17.5q-31 0 -58 15t-37 32h-7q-34 -47 -95 -47q-11 0 -21 2t-15 4l-5 3q0 -46 -7 -70t-24 -46q-37 -46 -103 -78.5t-145 -32.5q-105 0 -158.5 59t-53.5 154q0 76 29 143t66 67q11 0 16 -4
q-42 -75 -42 -155q0 -76 37.5 -124.5t116.5 -48.5q61 0 119.5 29t84.5 82q-6 62 -33.5 129t-55.5 110q0 26 16 41t36 15q22 0 35 -16q37 -103 59.5 -139.5t54.5 -36.5q47 0 75 49t34 105q7 12 26 12q20 0 27 -13q-15 -41 -15 -79q0 -32 14.5 -52.5t44.5 -20.5
q27 0 48.5 17.5t34.5 45.5t20.5 55t10.5 54q7 12 26 12q21 0 27 -13q-18 -43 -18 -79q0 -24 9.5 -42t21 -27t31 -14.5t30.5 -6.5t29 -2q16 -1 16 -16z" />
    <glyph glyph-name="uniFEB3" unicode="&#x633;" horiz-adv-x="719" arabic-form="initial" 
d="M395 51h-7q-37 -51 -111 -51q-86 0 -108 62h-6q-54 -59 -163 -63q-16 0 -16 16v56q0 16 16 17q79 0 124 41.5t59 111.5q7 12 26 12q21 0 27 -13q-15 -32 -15 -69q0 -36 16.5 -59.5t50.5 -23.5q53 0 85.5 55t41.5 117q7 12 26 12q21 0 27 -13q-18 -47 -18 -90
q0 -81 78 -81q60 0 77 42q0 72 -51 129q-3 8 -3 17q0 18 11.5 32t30.5 14q33 0 52 -45.5t19 -95.5q0 -74 -44.5 -127.5t-113.5 -53.5q-81 0 -111 51z" />
    <glyph glyph-name="uniFEB4" unicode="&#x633;" horiz-adv-x="780" arabic-form="medial" 
d="M780 0h-9q-53 0 -96.5 16.5t-61.5 46.5h-5q-15 -28 -48.5 -45t-68.5 -17q-32 0 -57.5 14.5t-36.5 32.5h-7q-36 -47 -114 -47q-40 0 -67 19t-38 43h-6q-20 -24 -65 -43t-100 -20q-16 0 -16 16v56q0 16 16 17q153 0 185 153q7 12 26 12q21 0 27 -13q-14 -35 -14 -72
q0 -80 68 -80q31 0 55.5 18t38 47t20.5 54.5t11 52.5q7 12 26 12q21 0 27 -13q-19 -51 -19 -93t18.5 -60t42.5 -18q31 0 56.5 31t37.5 68t16 73q8 12 26 12q20 0 27 -13q-18 -51 -18 -82q0 -86 123 -89q16 -1 16 -17v-56q0 -16 -16 -16z" />
    <glyph glyph-name="uniFEB5" unicode="&#x634;" horiz-adv-x="986" arabic-form="isolated" 
d="M666 50h-3q-29 -50 -101 -50q-9 0 -19.5 2t-16.5 4l-5 3q0 -46 -7 -70t-24 -46q-35 -44 -101 -77.5t-147 -33.5q-105 0 -158.5 59t-53.5 154q0 76 29 143t66 67q11 0 16 -4q-42 -75 -42 -155q0 -76 37.5 -124.5t116.5 -48.5q61 0 119.5 29t84.5 82q-6 62 -33.5 129
t-55.5 110q0 26 16 41t36 15q22 0 35 -16q36 -103 59 -139t55 -36q27 0 48 17t32.5 46t18 55t9.5 54q7 12 26 12q21 0 27 -13q-16 -53 -16 -89q0 -82 85 -82q2 0 6.5 0.5t15.5 3t20 6.5t18 12.5t13 19.5q0 72 -51 129q-3 8 -3 16q0 18 12 32.5t30 14.5q23 0 40 -26t24 -60
t7 -68q0 -84 -45 -126t-111 -42q-64 0 -109 50zM778 391q-50 18 -59 61q9 46 59 62q49 -16 59 -62q-10 -43 -59 -61zM631 391q-48 18 -58 61q10 46 58 62q51 -17 60 -62q-9 -43 -60 -61zM704 509q-48 18 -58 62q10 45 58 62q50 -18 60 -62q-10 -44 -60 -62z" />
    <glyph glyph-name="uniFEB6" unicode="&#x634;" horiz-adv-x="1045" arabic-form="final" 
d="M1061 72v-56q0 -16 -16 -16q-124 0 -165 62h-5q-17 -27 -50 -44.5t-66 -17.5q-31 0 -58 15t-37 32h-7q-34 -47 -95 -47q-11 0 -21 2t-15 4l-5 3q0 -46 -7 -70t-24 -46q-37 -46 -103 -78.5t-145 -32.5q-105 0 -158.5 59t-53.5 154q0 76 29 143t66 67q11 0 16 -4
q-42 -75 -42 -155q0 -76 37.5 -124.5t116.5 -48.5q61 0 119.5 29t84.5 82q-6 62 -33.5 129t-55.5 110q0 26 16 41t36 15q22 0 35 -16q37 -103 59.5 -139.5t54.5 -36.5q47 0 75 49t34 105q7 12 26 12q20 0 27 -13q-15 -41 -15 -79q0 -32 14.5 -52.5t44.5 -20.5
q27 0 48.5 17.5t34.5 45.5t20.5 55t10.5 54q7 12 26 12q21 0 27 -13q-18 -43 -18 -79q0 -24 9.5 -42t21 -27t31 -14.5t30.5 -6.5t29 -2q16 -1 16 -16zM777 392q-50 18 -59 61q9 46 59 62q49 -16 59 -62q-10 -43 -59 -61zM630 392q-48 18 -58 61q10 46 58 62q51 -17 60 -62
q-9 -43 -60 -61zM703 510q-48 18 -58 62q10 45 58 62q50 -18 60 -62q-10 -44 -60 -62z" />
    <glyph glyph-name="uniFEB7" unicode="&#x634;" horiz-adv-x="719" arabic-form="initial" 
d="M395 51h-7q-37 -51 -111 -51q-86 0 -108 62h-6q-54 -59 -163 -63q-16 0 -16 16v56q0 16 16 17q79 0 124 41.5t59 111.5q7 12 26 12q21 0 27 -13q-15 -32 -15 -69q0 -36 16.5 -59.5t50.5 -23.5q53 0 85.5 55t41.5 117q7 12 26 12q21 0 27 -13q-18 -47 -18 -90
q0 -81 78 -81q60 0 77 42q0 72 -51 129q-3 8 -3 17q0 18 11.5 32t30.5 14q33 0 52 -45.5t19 -95.5q0 -74 -44.5 -127.5t-113.5 -53.5q-81 0 -111 51zM514 391q-50 18 -59 61q9 46 59 62q49 -16 59 -62q-10 -43 -59 -61zM367 391q-48 18 -58 61q10 46 58 62q51 -17 60 -62
q-9 -43 -60 -61zM440 509q-48 18 -58 62q10 45 58 62q50 -18 60 -62q-10 -44 -60 -62z" />
    <glyph glyph-name="uniFEB8" unicode="&#x634;" horiz-adv-x="780" arabic-form="medial" 
d="M780 0h-9q-53 0 -96.5 16.5t-61.5 46.5h-5q-15 -28 -48.5 -45t-68.5 -17q-32 0 -57.5 14.5t-36.5 32.5h-7q-36 -47 -114 -47q-40 0 -67 19t-38 43h-6q-20 -24 -65 -43t-100 -20q-16 0 -16 16v56q0 16 16 17q153 0 185 153q7 12 26 12q21 0 27 -13q-14 -35 -14 -72
q0 -80 68 -80q31 0 55.5 18t38 47t20.5 54.5t11 52.5q7 12 26 12q21 0 27 -13q-19 -51 -19 -93t18.5 -60t42.5 -18q31 0 56.5 31t37.5 68t16 73q8 12 26 12q20 0 27 -13q-18 -51 -18 -82q0 -86 123 -89q16 -1 16 -17v-56q0 -16 -16 -16zM516 391q-50 18 -59 61q9 46 59 62
q49 -16 59 -62q-10 -43 -59 -61zM369 391q-48 18 -58 61q10 46 58 62q51 -17 60 -62q-9 -43 -60 -61zM442 509q-48 18 -58 62q10 45 58 62q50 -18 60 -62q-10 -44 -60 -62z" />
    <glyph glyph-name="uniFEB9" unicode="&#x635;" horiz-adv-x="1072" arabic-form="isolated" 
d="M455 263q28 -81 51.5 -121t61.5 -50q8 22 19.5 48t40.5 74.5t61 85.5t80 65.5t98 28.5q76 0 115.5 -46t39.5 -111q0 -82 -55 -129q-58 -50 -155.5 -79t-206.5 -29q-26 0 -47.5 6t-29.5 12l-9 7q2 -20 2 -30q0 -64 -31 -102q-38 -46 -103 -78.5t-143 -32.5
q-107 0 -160.5 59t-53.5 158q0 73 29 139.5t67 66.5q10 0 15 -4q-42 -75 -42 -154q0 -76 37.5 -125t115.5 -49q62 0 120.5 28.5t84.5 82.5q-6 62 -33.5 129t-55.5 110q0 26 16 41t36 15q22 0 35 -16zM626 88q69 2 127.5 13.5t94.5 26t61.5 31.5t35.5 30t10 20q0 38 -27 66.5
t-76 28.5q-37 0 -73 -21.5t-60 -48t-47.5 -63.5t-31.5 -53t-14 -30z" />
    <glyph glyph-name="uniFEBA" unicode="&#x635;" horiz-adv-x="1089" arabic-form="final" 
d="M1105 72v-56q0 -16 -16 -16q-55 0 -84 26.5t-29 68.5q0 11 3 25l-12 -12q-58 -50 -155.5 -79t-206.5 -29q-26 0 -47.5 6t-29.5 12l-9 7q2 -20 2 -30q0 -64 -31 -102q-38 -46 -103 -78.5t-143 -32.5q-107 0 -160.5 59t-53.5 158q0 73 29 139.5t67 66.5q10 0 15 -4
q-42 -75 -42 -154q0 -76 37.5 -125t115.5 -49q62 0 120.5 28.5t84.5 82.5q-6 62 -33.5 129t-55.5 110q0 23 14.5 39.5t37.5 16.5q22 0 35 -16q28 -81 51.5 -121t61.5 -50q8 22 19.5 48t40.5 74.5t61 85.5t80 65.5t98 28.5q76 0 115.5 -46t39.5 -111q0 -42 -15 -75
q13 -74 82 -74q16 0 16 -16zM626 88q69 2 127.5 13.5t94.5 26t61.5 31.5t35.5 30t10 20q0 38 -27 66.5t-76 28.5q-37 0 -73 -21.5t-60.5 -49t-47 -62.5t-31.5 -53.5t-14 -29.5z" />
    <glyph glyph-name="uniFEBB" unicode="&#x635;" horiz-adv-x="764" arabic-form="initial" 
d="M148 81h-4q-18 -41 -57 -61t-87 -20q-16 0 -16 16v56q0 16 16 16q20 0 38.5 4.5t40.5 18t37 43t19 73.5q6 14 29 14q22 0 27 -14q-5 -25 -5 -40q0 -75 74 -93q8 22 19.5 48t40.5 74.5t61 85.5t80 65.5t98 28.5q76 0 115.5 -46t39.5 -111q0 -82 -55 -129
q-58 -50 -154.5 -79t-201.5 -29q-61 0 -103 24.5t-52 54.5zM317 88q67 0 124.5 11t94 26.5t63 33t37.5 31t11 21.5q0 38 -27 66.5t-76 28.5q-38 0 -75.5 -22.5t-63.5 -54.5t-47 -64t-31 -55z" />
    <glyph glyph-name="uniFEBC" unicode="&#x635;" horiz-adv-x="780" arabic-form="medial" 
d="M796 72v-56q0 -16 -16 -16q-55 0 -84 26.5t-29 68.5q0 12 3 26q-5 -6 -11 -11q-58 -50 -154.5 -79t-201.5 -29q-61 0 -103 24.5t-52 54.5h-4q-18 -41 -57 -61t-87 -20q-16 0 -16 16v56q0 16 16 16q20 0 38.5 4.5t40.5 18t37 43t19 73.5q6 14 28 14q23 0 28 -14
q-5 -25 -5 -40q0 -75 74 -93q8 22 19.5 48t40.5 74.5t61 85.5t80 65.5t98 28.5q76 0 115.5 -46t39.5 -111q0 -42 -16 -77q13 -74 82 -74q16 0 16 -16zM317 88q67 0 124.5 11t94 26.5t63 33t37.5 31t11 21.5q0 38 -27 66.5t-76 28.5q-38 0 -75.5 -22.5t-63.5 -54.5t-47 -64
t-31 -55z" />
    <glyph glyph-name="uniFEBD" unicode="&#x636;" horiz-adv-x="1072" arabic-form="isolated" 
d="M455 263q28 -81 51.5 -121t61.5 -50q8 22 19.5 48t40.5 74.5t61 85.5t80 65.5t98 28.5q76 0 115.5 -46t39.5 -111q0 -82 -55 -129q-58 -50 -155.5 -79t-206.5 -29q-26 0 -47.5 6t-29.5 12l-9 7q2 -20 2 -30q0 -64 -31 -102q-38 -46 -103 -78.5t-143 -32.5
q-107 0 -160.5 59t-53.5 158q0 73 29 139.5t67 66.5q10 0 15 -4q-42 -75 -42 -154q0 -76 37.5 -125t115.5 -49q62 0 120.5 28.5t84.5 82.5q-6 62 -33.5 129t-55.5 110q0 26 16 41t36 15q22 0 35 -16zM626 88q69 2 127.5 13.5t94.5 26t61.5 31.5t35.5 30t10 20q0 38 -27 66.5
t-76 28.5q-37 0 -73 -21.5t-60 -48t-47.5 -63.5t-31.5 -53t-14 -30zM669 468q-52 18 -62 65q10 47 62 65q53 -18 63 -65q-10 -47 -63 -65z" />
    <glyph glyph-name="uniFEBE" unicode="&#x636;" horiz-adv-x="1089" arabic-form="final" 
d="M1105 72v-56q0 -16 -16 -16q-55 0 -84 26.5t-29 68.5q0 11 3 25l-12 -12q-58 -50 -155.5 -79t-206.5 -29q-26 0 -47.5 6t-29.5 12l-9 7q2 -20 2 -30q0 -64 -31 -102q-38 -46 -103 -78.5t-143 -32.5q-107 0 -160.5 59t-53.5 158q0 73 29 139.5t67 66.5q10 0 15 -4
q-42 -75 -42 -154q0 -76 37.5 -125t115.5 -49q62 0 120.5 28.5t84.5 82.5q-6 62 -33.5 129t-55.5 110q0 23 14.5 39.5t37.5 16.5q22 0 35 -16q28 -81 51.5 -121t61.5 -50q8 22 19.5 48t40.5 74.5t61 85.5t80 65.5t98 28.5q76 0 115.5 -46t39.5 -111q0 -42 -15 -75
q13 -74 82 -74q16 0 16 -16zM626 88q69 2 127.5 13.5t94.5 26t61.5 31.5t35.5 30t10 20q0 38 -27 66.5t-76 28.5q-37 0 -73 -21.5t-60.5 -49t-47 -62.5t-31.5 -53.5t-14 -29.5zM669 468q-52 18 -62 65q10 47 62 65q53 -18 63 -65q-10 -47 -63 -65z" />
    <glyph glyph-name="uniFEBF" unicode="&#x636;" horiz-adv-x="764" arabic-form="initial" 
d="M148 81h-4q-18 -41 -57 -61t-87 -20q-16 0 -16 16v56q0 16 16 16q20 0 38.5 4.5t40.5 18t37 43t19 73.5q6 14 29 14q22 0 27 -14q-5 -25 -5 -40q0 -75 74 -93q8 22 19.5 48t40.5 74.5t61 85.5t80 65.5t98 28.5q76 0 115.5 -46t39.5 -111q0 -82 -55 -129
q-58 -50 -154.5 -79t-201.5 -29q-61 0 -103 24.5t-52 54.5zM317 88q67 0 124.5 11t94 26.5t63 33t37.5 31t11 21.5q0 38 -27 66.5t-76 28.5q-38 0 -75.5 -22.5t-63.5 -54.5t-47 -64t-31 -55zM361 468q-52 18 -62 65q10 47 62 65q53 -18 63 -65q-10 -47 -63 -65z" />
    <glyph glyph-name="uniFEC0" unicode="&#x636;" horiz-adv-x="780" arabic-form="medial" 
d="M796 72v-56q0 -16 -16 -16q-55 0 -84 26.5t-29 68.5q0 12 3 26q-5 -6 -11 -11q-58 -50 -154.5 -79t-201.5 -29q-61 0 -103 24.5t-52 54.5h-4q-18 -41 -57 -61t-87 -20q-16 0 -16 16v56q0 16 16 16q20 0 38.5 4.5t40.5 18t37 43t19 73.5q6 14 28 14q23 0 28 -14
q-5 -25 -5 -40q0 -75 74 -93q8 22 19.5 48t40.5 74.5t61 85.5t80 65.5t98 28.5q76 0 115.5 -46t39.5 -111q0 -42 -16 -77q13 -74 82 -74q16 0 16 -16zM317 88q67 0 124.5 11t94 26.5t63 33t37.5 31t11 21.5q0 38 -27 66.5t-76 28.5q-38 0 -75.5 -22.5t-63.5 -54.5t-47 -64
t-31 -55zM361 468q-52 18 -62 65q10 47 62 65q53 -18 63 -65q-10 -47 -63 -65z" />
    <glyph glyph-name="uniFEC1" unicode="&#x637;" horiz-adv-x="704" arabic-form="isolated" 
d="M221 175v10q0 94 -20 182t-40 152t-20 100q0 85 50 96q32 -4 54 -40.5t28 -70.5l6 -35q-12 -26 -43 -36q37 -141 37 -240q0 -16 -2 -40q108 141 228 141q76 0 115.5 -46t39.5 -111q0 -85 -51 -128q-61 -51 -163.5 -80t-233.5 -29q-38 0 -75 2.5t-55 5.5l-19 2
q-17 4 -27 17.5t-10 29.5q0 27 27 40q42 -7 132 -9q14 38 42 87zM238 88q73 2 134.5 13t99.5 26t65.5 32t38.5 30t11 20q0 38 -27 66.5t-76 28.5q-39 0 -78 -21.5t-65.5 -47.5t-52 -63t-34 -52.5t-16.5 -31.5z" />
    <glyph glyph-name="uniFEC2" unicode="&#x637;" horiz-adv-x="764" arabic-form="final" 
d="M780 72v-56q0 -16 -16 -16q-75 0 -114 22t-39 74q0 12 3 23l-11 -10q-61 -51 -163.5 -80t-233.5 -29q-38 0 -75 2.5t-55 5.5l-19 2q-17 4 -27 17.5t-10 29.5q0 27 27 40q42 -7 132 -9q14 38 42 87v10q0 94 -20 182t-40 152t-20 100q0 85 50 96q32 -4 54 -40.5t28 -70.5
l6 -35q-12 -26 -43 -36q37 -141 37 -240q0 -16 -2 -40q108 141 228 141q76 0 115.5 -46t39.5 -111q0 -41 -12 -73q9 -46 35 -61t87 -15q16 0 16 -16zM238 88q73 2 134.5 13t99.5 26t65.5 32t38.5 30t11 20q0 38 -27 66.5t-76 28.5q-39 0 -78 -21.5t-65.5 -47.5t-52 -63
t-34 -52.5t-16.5 -31.5z" />
    <glyph glyph-name="uniFEC3" unicode="&#x637;" horiz-adv-x="600" arabic-form="initial" 
d="M102 0h-102q-16 0 -16 16v56q0 16 16 16h74q18 42 43 87v10q0 94 -20 182t-40 152t-20 100q0 85 50 96q32 -4 54 -40.5t28 -70.5l6 -35q-12 -26 -43 -36q37 -141 37 -240q0 -16 -2 -40q108 141 228 141q76 0 115.5 -46t39.5 -111q0 -85 -51 -128q-61 -51 -163.5 -80
t-233.5 -29zM134 88q73 2 134.5 13t99.5 26t65.5 32t38.5 30t11 20q0 38 -27 66.5t-76 28.5q-39 0 -78 -21.5t-65.5 -47.5t-52 -63t-34 -52.5t-16.5 -31.5z" />
    <glyph glyph-name="uniFEC4" unicode="&#x637;" horiz-adv-x="660" arabic-form="medial" 
d="M676 72v-56q0 -16 -16 -16q-75 0 -114 22t-39 74q0 12 3 23l-11 -10q-61 -51 -163.5 -80t-233.5 -29h-102q-16 0 -16 16v56q0 16 16 16h74q18 42 43 87v10q0 94 -20 182t-40 152t-20 100q0 85 50 96q32 -4 54 -40.5t28 -70.5l6 -35q-12 -26 -43 -36q37 -141 37 -240
q0 -16 -2 -40q108 141 228 141q76 0 115.5 -46t39.5 -111q0 -41 -12 -73q9 -46 35 -61t87 -15q16 0 16 -16zM134 88q73 2 134.5 13t99.5 26t65.5 32t38.5 30t11 20q0 38 -27 66.5t-76 28.5q-39 0 -78 -21.5t-65.5 -47.5t-52 -63t-34 -52.5t-16.5 -31.5z" />
    <glyph glyph-name="uniFEC5" unicode="&#x638;" horiz-adv-x="704" arabic-form="isolated" 
d="M221 175v10q0 94 -20 182t-40 152t-20 100q0 85 50 96q32 -4 54 -40.5t28 -70.5l6 -35q-12 -26 -43 -36q37 -141 37 -240q0 -16 -2 -40q108 141 228 141q76 0 115.5 -46t39.5 -111q0 -85 -51 -128q-61 -51 -163.5 -80t-233.5 -29q-38 0 -75 2.5t-55 5.5l-19 2
q-17 4 -27 17.5t-10 29.5q0 27 27 40q42 -7 132 -9q14 38 42 87zM238 88q73 2 134.5 13t99.5 26t65.5 32t38.5 30t11 20q0 38 -27 66.5t-76 28.5q-39 0 -78 -21.5t-65.5 -47.5t-52 -63t-34 -52.5t-16.5 -31.5zM451 468q-52 18 -62 65q10 47 62 65q53 -18 63 -65
q-10 -47 -63 -65z" />
    <glyph glyph-name="uniFEC6" unicode="&#x638;" horiz-adv-x="764" arabic-form="final" 
d="M780 72v-56q0 -16 -16 -16q-75 0 -114 22t-39 74q0 12 3 23l-11 -10q-61 -51 -163.5 -80t-233.5 -29q-38 0 -75 2.5t-55 5.5l-19 2q-17 4 -27 17.5t-10 29.5q0 27 27 40q42 -7 132 -9q14 38 42 87v10q0 94 -20 182t-40 152t-20 100q0 85 50 96q32 -4 54 -40.5t28 -70.5
l6 -35q-12 -26 -43 -36q37 -141 37 -240q0 -16 -2 -40q108 141 228 141q76 0 115.5 -46t39.5 -111q0 -41 -12 -73q9 -46 35 -61t87 -15q16 0 16 -16zM238 88q73 2 134.5 13t99.5 26t65.5 32t38.5 30t11 20q0 38 -27 66.5t-76 28.5q-39 0 -78 -21.5t-65.5 -47.5t-52 -63
t-34 -52.5t-16.5 -31.5zM451 468q-52 18 -62 65q10 47 62 65q53 -18 63 -65q-10 -47 -63 -65z" />
    <glyph glyph-name="uniFEC7" unicode="&#x638;" horiz-adv-x="600" arabic-form="initial" 
d="M102 0h-102q-16 0 -16 16v56q0 16 16 16h74q18 42 43 87v10q0 94 -20 182t-40 152t-20 100q0 85 50 96q32 -4 54 -40.5t28 -70.5l6 -35q-12 -26 -43 -36q37 -141 37 -240q0 -16 -2 -40q108 141 228 141q76 0 115.5 -46t39.5 -111q0 -85 -51 -128q-61 -51 -163.5 -80
t-233.5 -29zM134 88q73 2 134.5 13t99.5 26t65.5 32t38.5 30t11 20q0 38 -27 66.5t-76 28.5q-39 0 -78 -21.5t-65.5 -47.5t-52 -63t-34 -52.5t-16.5 -31.5zM347 468q-52 18 -62 65q10 47 62 65q53 -18 63 -65q-10 -47 -63 -65z" />
    <glyph glyph-name="uniFEC8" unicode="&#x638;" horiz-adv-x="660" arabic-form="medial" 
d="M676 72v-56q0 -16 -16 -16q-75 0 -114 22t-39 74q0 12 3 23l-11 -10q-61 -51 -163.5 -80t-233.5 -29h-102q-16 0 -16 16v56q0 16 16 16h74q18 42 43 87v10q0 94 -20 182t-40 152t-20 100q0 85 50 96q32 -4 54 -40.5t28 -70.5l6 -35q-12 -26 -43 -36q37 -141 37 -240
q0 -16 -2 -40q108 141 228 141q76 0 115.5 -46t39.5 -111q0 -41 -12 -73q9 -46 35 -61t87 -15q16 0 16 -16zM134 88q73 2 134.5 13t99.5 26t65.5 32t38.5 30t11 20q0 38 -27 66.5t-76 28.5q-39 0 -78 -21.5t-65.5 -47.5t-52 -63t-34 -52.5t-16.5 -31.5zM347 468
q-52 18 -62 65q10 47 62 65q53 -18 63 -65q-10 -47 -63 -65z" />
    <glyph glyph-name="uniFEC9" unicode="&#x639;" horiz-adv-x="545" arabic-form="isolated" 
d="M550 -222q9 -3 9 -12q0 -33 -70.5 -78.5t-172.5 -45.5q-117 0 -196.5 61.5t-79.5 163.5q0 164 165 273q-44 22 -76 59t-32 83q0 75 53 141t129 66q54 0 92.5 -39t38.5 -68q0 -10 -8 -12q-60 33 -103 33q-55 0 -94 -21.5t-39 -62.5q0 -68 139 -124q47 22 98 40
q25 0 39 -14.5t14 -35.5q0 -35 -35 -53q-53 -15 -91 -28t-83.5 -34.5t-73.5 -44.5t-47.5 -57t-19.5 -74q0 -36 17 -64.5t42 -45t58.5 -27t62 -14t56.5 -3.5q64 0 116 9.5t72 18.5z" />
    <glyph glyph-name="uniFECA" unicode="&#x639;" horiz-adv-x="492" arabic-form="final" 
d="M502 72v-57q0 -16 -16 -16q-130 0 -227 58q-41 -24 -66.5 -41t-54 -42.5t-42.5 -55t-14 -63.5q0 -54 36.5 -89.5t84.5 -48t104 -12.5q47 0 94.5 9.5t71.5 19.5l24 9q10 -6 10 -17q0 -35 -69 -77t-161 -42q-105 0 -183.5 59.5t-78.5 173.5q0 49 15 90t43.5 72.5t56.5 53
t68 45.5q-5 4 -20.5 17t-20.5 17t-17 12.5t-19 11.5t-17.5 6t-19.5 3q-13 30 -13 56q0 58 58.5 93.5t141.5 35.5q68 0 120 -28.5t52 -75.5q0 -76 -103 -143q31 -9 61.5 -13t56.5 -4.5t28 -0.5q16 -2 16 -16zM370 232q-27 41 -101 41q-45 0 -79 -14.5t-34 -40.5
q25 -10 62.5 -40.5t48.5 -37.5q84 50 103 92z" />
    <glyph glyph-name="uniFECB" unicode="&#x639;" horiz-adv-x="511" arabic-form="initial" 
d="M-16 16v56q0 16 16 16q76 0 107 1q-41 44 -41 95q0 75 52 141t126 66q54 0 92.5 -40.5t38.5 -70.5q0 -10 -8 -12q-60 33 -103 33q-55 0 -94 -21t-39 -59q0 -36 37 -66t85 -51q60 13 165 64q21 0 34.5 -13t13.5 -31q0 -19 -13 -33q-49 -25 -85.5 -40t-137 -32.5
t-230.5 -18.5q-16 0 -16 16z" />
    <glyph glyph-name="uniFECC" unicode="&#x639;" horiz-adv-x="443" arabic-form="medial" 
d="M459 72v-57q0 -16 -16 -16q-122 0 -215 60q-123 -60 -228 -60q-16 0 -16 16v57q0 16 16 16q83 0 159 23q-55 45 -76 53q-13 4 -25 4q-14 28 -14 56q0 58 59.5 93.5t139.5 35.5q70 0 121.5 -28.5t51.5 -75.5q0 -68 -107 -143q49 -16 134 -18q16 0 16 -16zM343 234
q-29 39 -101 39q-46 0 -79.5 -15t-33.5 -40q23 -11 60 -40t48 -36q43 21 71 46.5t35 45.5z" />
    <glyph glyph-name="uniFECD" unicode="&#x63a;" horiz-adv-x="545" arabic-form="isolated" 
d="M550 -222q9 -3 9 -12q0 -33 -70.5 -78.5t-172.5 -45.5q-117 0 -196.5 61.5t-79.5 163.5q0 164 165 273q-44 22 -76 59t-32 83q0 75 53 141t129 66q54 0 92.5 -39t38.5 -68q0 -10 -8 -12q-60 33 -103 33q-55 0 -94 -21.5t-39 -62.5q0 -68 139 -124q47 22 98 40
q25 0 39 -14.5t14 -35.5q0 -35 -35 -53q-53 -15 -91 -28t-83.5 -34.5t-73.5 -44.5t-47.5 -57t-19.5 -74q0 -36 17 -64.5t42 -45t58.5 -27t62 -14t56.5 -3.5q64 0 116 9.5t72 18.5zM275 579q-52 18 -62 65q10 47 62 65q53 -18 63 -65q-10 -47 -63 -65z" />
    <glyph glyph-name="uniFECE" unicode="&#x63a;" horiz-adv-x="492" arabic-form="final" 
d="M502 72v-57q0 -16 -16 -16q-130 0 -227 58q-41 -24 -66.5 -41t-54 -42.5t-42.5 -55t-14 -63.5q0 -54 36.5 -89.5t84.5 -48t104 -12.5q47 0 94.5 9.5t71.5 19.5l24 9q10 -6 10 -17q0 -35 -69 -77t-161 -42q-105 0 -183.5 59.5t-78.5 173.5q0 49 15 90t43.5 72.5t56.5 53
t68 45.5q-5 4 -20.5 17t-20.5 17t-17 12.5t-19 11.5t-17.5 6t-19.5 3q-13 30 -13 56q0 58 58.5 93.5t141.5 35.5q68 0 120 -28.5t52 -75.5q0 -76 -103 -143q31 -9 61.5 -13t56.5 -4.5t28 -0.5q16 -2 16 -16zM370 232q-27 41 -101 41q-45 0 -79 -14.5t-34 -40.5
q25 -10 62.5 -40.5t48.5 -37.5q84 50 103 92zM264 468q-52 18 -62 65q10 47 62 65q53 -18 63 -65q-10 -47 -63 -65z" />
    <glyph glyph-name="uniFECF" unicode="&#x63a;" horiz-adv-x="511" arabic-form="initial" 
d="M-16 16v56q0 16 16 16q76 0 107 1q-41 44 -41 95q0 75 52 141t126 66q54 0 92.5 -40.5t38.5 -70.5q0 -10 -8 -12q-60 33 -103 33q-55 0 -94 -21t-39 -59q0 -36 37 -66t85 -51q60 13 165 64q21 0 34.5 -13t13.5 -31q0 -19 -13 -33q-49 -25 -85.5 -40t-137 -32.5
t-230.5 -18.5q-16 0 -16 16zM239 481q-52 18 -62 65q10 47 62 65q53 -18 63 -65q-10 -47 -63 -65z" />
    <glyph glyph-name="uniFED0" unicode="&#x63a;" horiz-adv-x="443" arabic-form="medial" 
d="M459 72v-57q0 -16 -16 -16q-122 0 -215 60q-123 -60 -228 -60q-16 0 -16 16v57q0 16 16 16q83 0 159 23q-55 45 -76 53q-13 4 -25 4q-14 28 -14 56q0 58 59.5 93.5t139.5 35.5q70 0 121.5 -28.5t51.5 -75.5q0 -68 -107 -143q49 -16 134 -18q16 0 16 -16zM343 234
q-29 39 -101 39q-46 0 -79.5 -15t-33.5 -40q23 -11 60 -40t48 -36q43 21 71 46.5t35 45.5zM237 468q-52 18 -62 65q10 47 62 65q53 -18 63 -65q-10 -47 -63 -65z" />
    <glyph glyph-name="uniFED1" unicode="&#x641;" horiz-adv-x="853" arabic-form="isolated" 
d="M356 -10q-301 0 -301 219q0 67 24 116.5t51 49.5q6 0 11 -3q-27 -55 -27 -107q0 -81 61.5 -129t175.5 -48q124 0 231.5 27.5t148.5 70.5q6 30 6 65q0 11 -2 35q-20 -28 -53.5 -50t-75.5 -22q-46 0 -79.5 29.5t-33.5 88.5q0 72 48 128t111 56q70 0 110.5 -71.5
t40.5 -163.5q0 -77 -21 -126q-35 -80 -161 -122.5t-265 -42.5zM651 302q42 0 79 16q-10 49 -37 79.5t-72 30.5q-65 0 -65 -57q0 -37 28 -53t67 -16zM652 605q-52 18 -62 65q10 47 62 65q53 -18 63 -65q-10 -47 -63 -65z" />
    <glyph glyph-name="uniFED2" unicode="&#x641;" horiz-adv-x="878" arabic-form="final" 
d="M305 -31q-117 0 -183.5 58.5t-66.5 158.5q0 64 24 116t50 52q6 0 12 -3q-27 -54 -27 -107q0 -82 53 -129.5t162 -47.5q142 0 250 34q-40 48 -40 116q0 78 53 147t113 69q36 0 62.5 -29.5t38.5 -69t12 -79.5q0 -86 -64 -153q54 -14 123 -14q17 0 17 -17v-54q0 -17 -17 -17
h-4q-141 0 -228 48q-146 -79 -340 -79zM598 249q0 -67 72 -112q89 52 89 109q0 31 -19.5 65t-57.5 34q-36 0 -60 -30.5t-24 -65.5zM705 522q-52 18 -62 65q10 47 62 65q53 -18 63 -65q-10 -47 -63 -65z" />
    <glyph glyph-name="uniFED3" unicode="&#x641;" horiz-adv-x="403" arabic-form="initial" 
d="M0 0q-16 0 -16 16v56q0 16 16 16q217 0 284 87q2 26 2 44q0 25 -3 52q-20 -28 -54 -52t-75 -24q-47 0 -81.5 28.5t-34.5 84.5q0 77 48 133t111 56q54 0 90.5 -38t50.5 -90.5t14 -113.5q0 -66 -15 -111q-22 -68 -112.5 -106t-224.5 -38zM191 283q53 0 87 17
q-26 109 -121 109q-23 0 -39.5 -15.5t-16.5 -44.5q0 -33 28 -49.5t62 -16.5zM198 586q-52 18 -62 65q10 47 62 65q53 -18 63 -65q-10 -47 -63 -65z" />
    <glyph glyph-name="uniFED4" unicode="&#x641;" horiz-adv-x="415" arabic-form="medial" 
d="M414 0h-5q-128 0 -211 39q-87 -39 -192 -39h-5q-17 0 -17 17v54q0 17 17 17h4q57 0 111 14q-40 51 -40 125q0 61 53 133.5t113 72.5q52 0 82.5 -56.5t30.5 -120.5q0 -90 -64 -154q53 -14 118 -14h5q17 0 17 -17v-54q0 -17 -17 -17zM296 239q0 40 -20 73t-55 33
q-36 0 -61 -28.5t-25 -78.5q0 -56 70 -101q42 23 66.5 50t24.5 52zM243 522q-52 18 -62 65q10 47 62 65q53 -18 63 -65q-10 -47 -63 -65z" />
    <glyph glyph-name="uniFED5" unicode="&#x642;" horiz-adv-x="674" arabic-form="isolated" 
d="M624 157q0 -125 -40 -177q-52 -67 -139.5 -111.5t-184.5 -44.5q-220 0 -220 204q0 71 30.5 144.5t60.5 73.5q5 0 11 -3q-36 -84 -36 -153q0 -74 43 -120t137 -46q72 0 151 41t117 105q5 33 5 66q0 12 -2 38q-55 -72 -126 -72q-47 0 -81.5 28.5t-34.5 84.5q0 77 48 133
t111 56q52 0 87 -37t49 -90.5t14 -119.5zM468 190q47 0 84 16q-22 110 -118 110q-23 0 -39.5 -15t-16.5 -45q0 -33 28 -49.5t62 -16.5zM543 493q-50 18 -59 61q9 46 59 62q49 -16 59 -62q-10 -43 -59 -61zM396 493q-48 18 -58 61q10 46 58 62q51 -17 60 -62q-9 -43 -60 -61z
" />
    <glyph glyph-name="uniFED6" unicode="&#x642;" horiz-adv-x="665" arabic-form="final" 
d="M665 0h-53q-7 -80 -38 -122q-53 -68 -137.5 -112t-186.5 -44q-220 0 -220 204q0 71 30.5 144.5t60.5 73.5q5 0 11 -3q-36 -84 -36 -153q0 -74 43 -120t137 -46q72 0 151 41t117 105l4 32q-123 2 -183 26t-60 87q0 77 48 133t111 56q70 0 106.5 -60.5t42.5 -153.5h52
q16 0 16 -16v-56q0 -16 -16 -16zM368 154q0 -64 177 -66q-19 126 -121 126q-23 0 -39.5 -15t-16.5 -45zM538 391q-50 18 -59 61q9 46 59 62q49 -16 59 -62q-10 -43 -59 -61zM391 391q-48 18 -58 61q10 46 58 62q51 -17 60 -62q-9 -43 -60 -61z" />
    <glyph glyph-name="uniFED7" unicode="&#x642;" horiz-adv-x="403" arabic-form="initial" 
d="M0 0q-16 0 -16 16v56q0 16 16 16q217 0 284 87q2 26 2 44q0 25 -3 52q-20 -28 -54 -52t-75 -24q-47 0 -81.5 28.5t-34.5 84.5q0 77 48 133t111 56q54 0 90.5 -38t50.5 -90.5t14 -113.5q0 -66 -15 -111q-22 -68 -112.5 -106t-224.5 -38zM191 283q53 0 87 17
q-26 109 -121 109q-23 0 -39.5 -15.5t-16.5 -44.5q0 -33 28 -49.5t62 -16.5zM266 586q-50 18 -59 61q9 46 59 62q49 -16 59 -62q-10 -43 -59 -61zM119 586q-48 18 -58 61q10 46 58 62q51 -17 60 -62q-9 -43 -60 -61z" />
    </font>
</defs>
</svg>
